<svg xmlns="http://www.w3.org/2000/svg" version="1.1" xmlns:xlink="http://www.w3.org/1999/xlink" xmlns:svgjs="http://svgjs.com/svgjs" id="Pattern1079SvgRootPreview" width="100%" height="100%"><defs><pattern x="0" y="0" width="1" height="1" patternUnits="userSpaceOnUse" id="Pattern1079Layer1"><g id="PatternRootContent1"><g id="Pattern1079Layer1background"><rect width="1" height="1" id="Pattern1079Background1" class="color_1 fill_color_1" fill="#d5c8e8"></rect></g></g></pattern><pattern x="0" y="0" width="240" height="420" patternUnits="userSpaceOnUse" id="Pattern1079Layer2" patternTransform="matrix(0.5,0,0,0.5,0,0)" viewBox="0 0 240 420" preserveAspectRatio="xMidYMid slice"><g id="PatternRootContent2" transform="scale(3) rotate(0)"><g id="Pattern1079Layer2Element2"><use xlink:href="#Pattern1079Element2" x="40.51691818237305" y="-73.73313903808594" transform="translate(80, -35) scale(1) translate(-80, 35) rotate(0, 80, -35)"></use><use xlink:href="#Pattern1079Element2" x="-39.48308181762695" y="-73.73313903808594" transform="translate(0, -35) scale(1) translate(0, 35) rotate(0, 0, -35)"></use><use xlink:href="#Pattern1079Element2" x="0.5169181823730469" y="-3.7331390380859375" transform="translate(40, 35) scale(1) translate(-40, -35) rotate(0, 40, 35)"></use><use xlink:href="#Pattern1079Element2" x="-79.48308181762695" y="-3.7331390380859375" transform="translate(-40, 35) scale(1) translate(40, -35) rotate(0, -40, 35)"></use><use xlink:href="#Pattern1079Element2" x="40.51691818237305" y="66.26686096191406" transform="translate(80, 105) scale(1) translate(-80, -105) rotate(0, 80, 105)"></use><use xlink:href="#Pattern1079Element2" x="-39.48308181762695" y="66.26686096191406" transform="translate(0, 105) scale(1) translate(0, -105) rotate(0, 0, 105)"></use><use xlink:href="#Pattern1079Element2" x="0.5169181823730469" y="136.26686096191406" transform="translate(40, 175) scale(1) translate(-40, -175) rotate(0, 40, 175)"></use><use xlink:href="#Pattern1079Element2" x="0.5169181823730469" y="136.26686096191406" transform="translate(40, 175) scale(1) translate(-40, -175) rotate(0, 40, 175)"></use></g></g></pattern><symbol id="Pattern1079Element2"><g class="color_3 fill_color_3" fill="#ebe8ff"><path d="M51.532,32.4847526550293c0.057,-0.045,0.115,-0.086,0.166,-0.136c0.054,-0.054,0.098,-0.116,0.144,-0.176c0.045,-0.057,0.091,-0.112,0.127,-0.176c0.036,-0.064,0.062,-0.134,0.09,-0.203c0.023,-0.056,0.057,-0.106,0.074,-0.165c0.004,-0.017,0.003,-0.035,0.007,-0.054c0.004,-0.015,0.013,-0.028,0.017,-0.044L56.281,13.293871879577637c0.206,-0.909,-0.364,-1.812,-1.273,-2.018c-0.909,-0.206,-1.812,0.364,-2.017,1.273L52.991,12.548582077026367l-3.45,15.253l-2.034,-2.032L29.653,7.91420316696167c-0.659,-0.658,-1.727,-0.659,-2.386,0c-0.284,0.284,-0.438,0.644,-0.477,1.015c-0.052,0.489,0.101,0.998,0.477,1.373l18.936,18.935l0.952,0.952L31.901,33.63874816894531c-0.91,0.206,-1.479,1.109,-1.273,2.019c0.074,0.322,0.234,0.602,0.452,0.82c0.395,0.395,0.981,0.586,1.568,0.453l-0.001,-0.001l18.238,-4.125c0.016,-0.003,0.028,-0.012,0.044,-0.017c0.018,-0.004,0.035,-0.001,0.054,-0.007c0.06,-0.018,0.112,-0.051,0.17,-0.075c0.066,-0.028,0.134,-0.052,0.197,-0.087C51.414,32.58,51.471,32.531,51.532,32.4847526550293Z"></path><path d="M40.947,55.88914489746094c0.01,0.072,0.016,0.143,0.035,0.212c0.02,0.073,0.052,0.142,0.081,0.212c0.027,0.067,0.051,0.134,0.089,0.198c0.038,0.063,0.085,0.12,0.131,0.179c0.037,0.048,0.064,0.102,0.107,0.146c0.013,0.012,0.029,0.02,0.043,0.033c0.011,0.01,0.017,0.025,0.029,0.037L55.192,69.59727478027344c0.684,0.633,1.752,0.591,2.384,-0.093c0.633,-0.684,0.591,-1.752,-0.094,-2.383L57.482,67.12116241455078l-11.484,-10.614l2.777,-0.745L73.165,49.22638702392578c0.899,-0.241,1.434,-1.166,1.193,-2.066c-0.104,-0.388,-0.339,-0.701,-0.64,-0.921c-0.398,-0.29,-0.915,-0.411,-1.428,-0.274l-25.866,6.932l-1.301,0.349L49.763,38.31146240234375c0.277,-0.891,-0.221,-1.835,-1.112,-2.112c-0.316,-0.098,-0.638,-0.098,-0.936,-0.018c-0.54,0.145,-0.998,0.556,-1.176,1.131l0.002,-0.001l-5.547,17.857c-0.005,0.015,-0.003,0.03,-0.007,0.046c-0.006,0.017,-0.016,0.031,-0.021,0.05c-0.015,0.061,-0.012,0.122,-0.02,0.184c-0.009,0.072,-0.022,0.143,-0.023,0.214C40.923,55.739,40.937,55.813,40.947,55.88914489746094Z"></path><path d="M25.971,35.02006149291992c-0.068,-0.027,-0.132,-0.057,-0.202,-0.076c-0.073,-0.02,-0.149,-0.027,-0.224,-0.036c-0.072,-0.01,-0.142,-0.023,-0.216,-0.022c-0.074,0.001,-0.146,0.014,-0.221,0.024c-0.06,0.008,-0.12,0.004,-0.18,0.019c-0.017,0.005,-0.032,0.015,-0.05,0.021c-0.015,0.004,-0.031,0.002,-0.046,0.007L6.976,40.502811431884766c-0.89,0.276,-1.387,1.222,-1.111,2.111c0.276,0.891,1.222,1.387,2.111,1.11L7.976,43.72420883178711l14.934,-4.639l-0.743,2.777L15.631,66.25336456298828c-0.24,0.899,0.293,1.825,1.193,2.066c0.388,0.104,0.777,0.057,1.117,-0.094c0.45,-0.199,0.813,-0.586,0.951,-1.099l6.93,-25.867l0.349,-1.301L36.785,51.443748474121094c0.634,0.685,1.7,0.727,2.385,0.093c0.242,-0.225,0.404,-0.504,0.484,-0.801c0.145,-0.54,0.017,-1.142,-0.391,-1.584l-0.001,0.002l-12.691,-13.733c-0.01,-0.012,-0.024,-0.018,-0.037,-0.029c-0.012,-0.014,-0.019,-0.03,-0.033,-0.043c-0.045,-0.043,-0.1,-0.071,-0.15,-0.109c-0.058,-0.043,-0.112,-0.09,-0.174,-0.127C26.112,35.074,26.041,35.049,25.971,35.02006149291992Z"></path></g></symbol></defs><rect width="100%" height="100%" id="Pattern1079RctLayer1" fill="url(#Pattern1079Layer1)"></rect><rect width="100%" height="100%" id="Pattern1079RctLayer2" fill="url(#Pattern1079Layer2)"></rect></svg>