<?xml version="1.0" encoding="iso-8859-1"?>
<!-- Generator: Adobe Illustrator 19.0.0, SVG Export Plug-In . SVG Version: 6.00 Build 0)  -->
<svg version="1.1" id="Layer_1" xmlns="http://www.w3.org/2000/svg" xmlns:xlink="http://www.w3.org/1999/xlink" x="0px" y="0px"
	 viewBox="0 0 509.76 509.76" style="enable-background:new 0 0 509.76 509.76;" xml:space="preserve">
<g>
	<path style="fill:#5A5555;" d="M502.26,390.924v18.7c0,5.42-4.4,9.81-9.81,9.81H17.31c-5.41,0-9.8-4.39-9.8-9.81L7.5,98.074
		c0-5.42,4.4-9.81,9.81-9.81h475.14c5.41,0,9.8,4.39,9.8,9.81L502.26,390.924z"/>
	<path style="fill:#736E6E;" d="M502.26,390.924H51.64c-5.41,0-9.8-4.39-9.8-9.81V88.264h450.61c5.41,0,9.8,4.39,9.8,9.81
		L502.26,390.924z"/>
	<path style="fill:#DCD2CD;" d="M450.122,73.891C345.365,26.822,254.88,74.55,254.88,74.55s-90.485-47.728-195.242-0.659
		c-0.883,0.397-1.453,1.282-1.453,2.25v309.43c0,1.766,1.813,2.965,3.43,2.256c103.917-45.593,193.266,1.536,193.266,1.536
		s89.349-47.129,193.266-1.536c1.617,0.71,3.43-0.489,3.43-2.256V76.141C451.576,75.173,451.006,74.288,450.122,73.891z"/>
	<path style="fill:#EBE1DC;" d="M451.58,76.144v277.84c-29.3-10.63-58.44-14.38-84.94-14.38c-63.37,0-111.76,21.41-111.76,21.41
		s-72.18-47.13-176.1-1.54c-1.61,0.71-3.43-0.49-3.43-2.25V67.484c0.23-0.08,0.46-0.17,0.69-0.25
		c97.63-35.52,178.84,7.32,178.84,7.32s90.48-47.73,195.24-0.66C451.01,74.284,451.58,75.174,451.58,76.144z"/>
	<path style="fill:#FFF5F5;" d="M451.58,76.144v277.84c-29.3-10.63-58.44-14.38-84.94-14.38c-63.37,0-111.76,21.41-111.76,21.41
		V74.554c0,0,90.48-47.73,195.24-0.66C451.01,74.284,451.58,75.174,451.58,76.144z"/>
	<path style="fill:#F44545;" d="M289.21,376.694v74.77c0,2-2.33,3.1-3.87,1.82l-11.46-9.54c-0.86-0.72-2.11-0.73-2.99-0.03
		l-12.17,9.72c-1.55,1.24-3.84,0.14-3.84-1.84v-62.23C254.88,389.364,267.67,382.614,289.21,376.694z"/>
	<path style="fill:#7FBED7;" d="M417.086,118.877c-29.759-8.086-75.854-14.468-127.859,0.353c-3.546,1.01-5.987,4.269-5.987,7.957
		v93.775c0,5.447,5.165,9.37,10.431,7.981c47.847-12.619,90.368-7.528,119.279-0.218c5.212,1.318,10.264-2.651,10.264-8.027v-93.831
		C423.215,123.123,420.699,119.858,417.086,118.877z"/>
	<g>
		<path d="M181.088,119.175c27.868,3.008,41.589,8.958,44.921,8.958c3.224,0,6.203-2.096,7.179-5.342
			c1.193-3.966-1.056-8.149-5.022-9.342c-14.728-4.429-30.026-7.52-45.469-9.187c-4.119-0.448-7.817,2.534-8.261,6.652
			C173.991,115.032,176.97,118.73,181.088,119.175z"/>
		<path d="M83.785,113.867c-3.952,1.241-6.149,5.451-4.908,9.402c1.006,3.204,3.963,5.255,7.153,5.255
			c4.052,0,26.968-10.002,66.041-10.671c4.142-0.071,7.441-3.486,7.371-7.627c-0.071-4.142-3.502-7.398-7.627-7.371
			C128.676,103.252,105.788,106.957,83.785,113.867z"/>
		<path d="M228.166,166.621c-33.337-10.025-85.448-18.091-144.381,0.419c-3.952,1.241-6.149,5.451-4.908,9.402
			c1.236,3.935,5.435,6.155,9.402,4.908c55.3-17.367,104.244-9.785,135.568-0.365c3.968,1.193,8.149-1.056,9.342-5.022
			C234.381,171.997,232.133,167.814,228.166,166.621z"/>
		<path d="M228.166,219.029c-33.336-10.026-85.446-18.091-144.381,0.419c-3.952,1.241-6.149,5.451-4.908,9.402
			c1.236,3.935,5.435,6.155,9.402,4.908c55.301-17.367,104.246-9.785,135.568-0.365c3.968,1.194,8.149-1.056,9.342-5.022
			C234.381,224.405,232.133,220.222,228.166,219.029z"/>
		<path d="M228.166,271.437c-33.337-10.025-85.448-18.091-144.381,0.419c-3.952,1.241-6.149,5.451-4.908,9.402
			c1.006,3.204,3.963,5.255,7.153,5.255c4.508,0,61.244-23.738,137.817-0.712c3.968,1.193,8.149-1.056,9.342-5.022
			C234.381,276.813,232.133,272.63,228.166,271.437z"/>
		<path d="M228.166,323.845c-33.336-10.026-85.446-18.091-144.381,0.419c-3.952,1.241-6.149,5.451-4.908,9.402
			c1.236,3.935,5.435,6.155,9.402,4.908c55.301-17.367,104.246-9.785,135.568-0.365c3.968,1.194,8.149-1.056,9.342-5.022
			C234.381,329.221,232.133,325.038,228.166,323.845z"/>
		<path d="M423.218,286.121c8.609,0,10.377-12.212,2.157-14.684c-4.905-1.476-9.955-2.822-15.01-4.003
			c-4.034-0.942-8.067,1.563-9.01,5.597c-0.942,4.034,1.563,8.067,5.598,9.01C420.005,285.09,420.812,286.121,423.218,286.121z"/>
		<path d="M283.238,286.513c0.744,0,1.502-0.112,2.249-0.347c30.378-9.54,61.773-12.353,92.809-9.003
			c4.121,0.45,7.817-2.534,8.262-6.652c0.444-4.118-2.534-7.817-6.652-8.261c-33.654-3.633-67.096-0.387-98.912,9.606
			c-3.952,1.241-6.149,5.451-4.908,9.402C277.091,284.462,280.049,286.513,283.238,286.513z"/>
		<path d="M425.375,323.845c-33.336-10.025-85.447-18.09-144.382,0.419c-3.952,1.241-6.149,5.451-4.908,9.402
			c1.237,3.94,5.441,6.154,9.402,4.908c55.302-17.367,104.246-9.784,135.567-0.365c3.966,1.192,8.149-1.056,9.343-5.022
			C431.59,329.221,429.342,325.038,425.375,323.845z"/>
		<path d="M280.993,113.867c-3.126,0.981-5.253,3.879-5.253,7.155v110.933c0,2.388,1.137,4.633,3.062,6.046
			c1.303,0.957,2.861,1.454,4.439,1.454c0.753,0,1.51-0.113,2.246-0.345c55.302-17.367,104.246-9.785,135.567-0.365
			c2.27,0.683,4.731,0.252,6.635-1.164c1.903-1.415,3.025-3.647,3.025-6.019V120.63c0-3.31-2.17-6.229-5.34-7.182
			C392.037,103.422,339.926,95.358,280.993,113.867z M415.715,221.685c-31.278-8.063-75.404-13.057-124.975,0.275v-95.363
			c50.115-14.43,94.632-8.673,124.975-0.322V221.685z"/>
		<path d="M492.45,80.764h-33.37c-0.321-1.682,1.801-10.267-5.88-13.71c-67.772-30.451-144.132-25.999-198.32-0.84
			c-53.814-24.985-130.111-29.808-198.31,0.84c-7.674,3.43-5.583,12.099-5.89,13.71H17.31C7.77,80.764,0,88.534,0,98.074v311.56
			c0,9.54,7.77,17.3,17.31,17.3h230.07v29.57c0,6.273,7.276,9.783,12.18,5.86l12.74-10.18c11.296,8.79,12.366,11.82,16.91,11.82
			c4.148,0,7.5-3.356,7.5-7.5v-29.57h101.25c4.14,0,7.5-3.35,7.5-7.5c0-4.14-3.36-7.5-7.5-7.5H296.71v-29.37
			c34.67-8.59,89.24-13.83,148.42,12.13c6.589,2.888,13.95-1.965,13.95-9.12V95.764h33.37c1.27,0,2.31,1.04,2.31,2.31v311.56
			c0,1.27-1.04,2.3-2.31,2.3h-64.49c-4.14,0-7.5,3.36-7.5,7.5c0,4.15,3.36,7.5,7.5,7.5h64.49c9.54,0,17.31-7.76,17.31-17.3V98.074
			C509.76,88.534,501.99,80.764,492.45,80.764z M247.38,411.934H17.31c-1.27,0-2.31-1.03-2.31-2.3V98.074
			c0-1.27,1.04-2.31,2.31-2.31h33.37v289.81c0,7.14,7.337,12.009,13.95,9.12c61.798-27.113,131.213-23.676,182.75-0.587V411.934z
			 M247.38,377.784c-53.649-21.637-120.524-24.393-181.7,0.2c0-10.818,0-285.193,0-298.56c61.372-26.555,130.416-23.162,181.7-0.13
			C247.38,92.489,247.38,367.674,247.38,377.784z M281.71,440.504l-4.51-3.76c-2.74-2.28-6.7-2.32-9.49-0.1l-5.33,4.27
			c0-10.223,0-29.267,0-46.81c3.88-1.73,10.49-4.46,19.33-7.29C281.71,417.107,281.71,409.856,281.71,440.504z M444.08,377.984
			c-60.618-24.373-127.269-22.169-181.7-0.2c0-10.132,0-285.279,0-298.49c50.895-22.829,119.799-26.649,181.7,0.13
			C444.08,93.298,444.08,365.281,444.08,377.984z"/>
		<path d="M363.103,146.27l16.064,2.605l-30.46,26.272l-5.015-14.114c-1.894-5.327-8.808-6.731-12.623-2.527l-26.593,29.322
			c-2.782,3.068-2.551,7.812,0.518,10.594c3.068,2.783,7.811,2.55,10.594-0.517l18.169-20.034l4.484,12.622
			c1.757,4.942,7.954,6.628,11.966,3.168l36.717-31.668V173.6c0,4.142,3.357,7.5,7.5,7.5s7.5-3.358,7.5-7.5v-29.849
			c0-3.679-2.668-6.814-6.3-7.403l-30.12-4.884c-4.094-0.663-7.941,2.115-8.604,6.203
			C356.236,141.755,359.014,145.607,363.103,146.27z"/>
	</g>
</g>
<g>
</g>
<g>
</g>
<g>
</g>
<g>
</g>
<g>
</g>
<g>
</g>
<g>
</g>
<g>
</g>
<g>
</g>
<g>
</g>
<g>
</g>
<g>
</g>
<g>
</g>
<g>
</g>
<g>
</g>
</svg>
