<?xml version="1.0" encoding="iso-8859-1"?>
<!-- Generator: Adobe Illustrator 19.0.0, SVG Export Plug-In . SVG Version: 6.00 Build 0)  -->
<svg version="1.1" id="Layer_1" xmlns="http://www.w3.org/2000/svg" xmlns:xlink="http://www.w3.org/1999/xlink" x="0px" y="0px"
	 viewBox="0 0 508.218 508.218" style="enable-background:new 0 0 508.218 508.218;" xml:space="preserve">
<g>
	<path style="fill:#5A5555;" d="M455.726,58.064v392c0,27.81-22.76,50.56-50.56,50.56h-301.98c-27.8,0-50.56-22.75-50.56-50.56v-392
		c0-27.82,22.76-50.56,50.56-50.56h301.98C432.966,7.504,455.726,30.244,455.726,58.064z"/>
	<path style="fill:#736E6E;" d="M455.726,58.064v392c0,27.81-22.76,50.56-50.56,50.56h-264.17c-27.8,0-50.56-22.75-50.56-50.56v-392
		c0-27.82,22.76-50.56,50.56-50.56h264.17C432.966,7.504,455.726,30.244,455.726,58.064z"/>
	<g>
		<path style="fill:#FF883E;" d="M455.723,143.638v306.431c0,9.766-2.808,18.899-7.648,26.641
			c-8.944,14.332-24.864,23.919-42.912,23.919H103.189c-17.953,0-33.798-9.482-42.77-23.692c-4.935-7.8-7.79-17.008-7.79-26.868
			V143.638H455.723z"/>
	</g>
	<path style="fill:#EBE1DC;" d="M417.916,62.804v25.84c0,13.26-10.85,24.11-24.11,24.11h-279.26c-13.26,0-24.11-10.85-24.11-24.11
		v-25.84c0-13.25,10.85-24.11,24.11-24.11h279.26C407.066,38.694,417.916,49.554,417.916,62.804z"/>
	<path style="fill:#FFF5F5;" d="M417.916,62.804v25.84c0,13.26-10.85,24.11-24.11,24.11h-236.23c-13.26,0-24.11-10.85-24.11-24.11
		v-25.84c0-13.25,10.85-24.11,24.11-24.11h236.23C407.066,38.694,417.916,49.554,417.916,62.804z"/>
	<g>
		<path style="fill:#D63030;" d="M411.566,319.554v46.91c0,15.71-12.85,28.56-28.56,28.56c-15.71,0-28.56-12.85-28.56-28.56v-46.91
			c0-15.71,12.85-28.56,28.56-28.56c7.85,0,14.99,3.21,20.17,8.39S411.566,311.704,411.566,319.554z"/>
		<path style="fill:#5A5555;" d="M155.646,200.174c0,16.73-13.57,30.3-30.3,30.3c-16.74,0-30.3-13.57-30.3-30.3
			c0-3.68,0.65-7.2,1.86-10.46c4.25-11.59,15.38-19.85,28.44-19.85s24.19,8.26,28.44,19.85
			C154.996,192.974,155.646,196.494,155.646,200.174z"/>
		<path style="fill:#5A5555;" d="M241.576,200.174c0,16.73-13.57,30.3-30.3,30.3c-16.74,0-30.3-13.57-30.3-30.3
			c0-3.68,0.65-7.2,1.86-10.46c4.25-11.59,15.38-19.85,28.44-19.85s24.19,8.26,28.44,19.85
			C240.926,192.974,241.576,196.494,241.576,200.174z"/>
		<path style="fill:#5A5555;" d="M327.506,200.174c0,16.73-13.56,30.3-30.3,30.3c-16.74,0-30.3-13.57-30.3-30.3
			c0-3.68,0.65-7.2,1.86-10.46c4.25-11.59,15.38-19.85,28.44-19.85c13.06,0,24.19,8.26,28.44,19.85
			C326.856,192.974,327.506,196.494,327.506,200.174z"/>
		<path style="fill:#5A5555;" d="M155.646,282.444c0,16.74-13.57,30.3-30.3,30.3c-16.74,0-30.3-13.56-30.3-30.3
			c0-3.68,0.66-7.2,1.86-10.46c4.26-11.58,15.38-19.84,28.44-19.84c13.05,0,24.18,8.26,28.44,19.84
			C154.986,275.244,155.646,278.764,155.646,282.444z"/>
		<path style="fill:#5A5555;" d="M241.576,282.444c0,16.74-13.57,30.3-30.3,30.3c-16.74,0-30.3-13.56-30.3-30.3
			c0-3.68,0.66-7.2,1.86-10.46c4.26-11.58,15.38-19.84,28.44-19.84c13.05,0,24.18,8.26,28.44,19.84
			C240.916,275.244,241.576,278.764,241.576,282.444z"/>
		<path style="fill:#5A5555;" d="M327.506,282.444c0,16.74-13.56,30.3-30.3,30.3c-16.74,0-30.3-13.56-30.3-30.3
			c0-3.68,0.66-7.2,1.86-10.46c4.26-11.58,15.38-19.84,28.44-19.84c13.06,0,24.18,8.26,28.44,19.84
			C326.846,275.244,327.506,278.764,327.506,282.444z"/>
		<path style="fill:#5A5555;" d="M155.646,364.724c0,16.73-13.57,30.3-30.3,30.3c-16.74,0-30.3-13.57-30.3-30.3
			c0-3.68,0.65-7.2,1.86-10.46c4.25-11.58,15.38-19.84,28.44-19.84s24.19,8.26,28.44,19.84
			C154.996,357.524,155.646,361.044,155.646,364.724z"/>
		<path style="fill:#5A5555;" d="M241.576,364.724c0,16.73-13.57,30.3-30.3,30.3c-16.74,0-30.3-13.57-30.3-30.3
			c0-3.68,0.65-7.2,1.86-10.46c4.25-11.58,15.38-19.84,28.44-19.84s24.19,8.26,28.44,19.84
			C240.926,357.524,241.576,361.044,241.576,364.724z"/>
		<path style="fill:#5A5555;" d="M327.506,364.724c0,16.73-13.56,30.3-30.3,30.3c-16.74,0-30.3-13.57-30.3-30.3
			c0-3.68,0.65-7.2,1.86-10.46c4.25-11.58,15.38-19.84,28.44-19.84c13.06,0,24.19,8.26,28.44,19.84
			C326.856,357.524,327.506,361.044,327.506,364.724z"/>
		<path style="fill:#5A5555;" d="M155.646,448.204c0,16.74-13.57,30.3-30.3,30.3c-16.74,0-30.3-13.56-30.3-30.3
			c0-3.68,0.66-7.2,1.86-10.46c4.26-11.58,15.38-19.84,28.44-19.84c13.05,0,24.18,8.26,28.44,19.84
			C154.986,441.004,155.646,444.524,155.646,448.204z"/>
		<path style="fill:#5A5555;" d="M241.576,448.204c0,16.74-13.57,30.3-30.3,30.3c-16.74,0-30.3-13.56-30.3-30.3
			c0-3.68,0.66-7.2,1.86-10.46c4.26-11.58,15.38-19.84,28.44-19.84c13.05,0,24.18,8.26,28.44,19.84
			C240.916,441.004,241.576,444.524,241.576,448.204z"/>
		<path style="fill:#5A5555;" d="M327.506,448.204c0,16.74-13.56,30.3-30.3,30.3c-16.74,0-30.3-13.56-30.3-30.3
			c0-3.68,0.66-7.2,1.86-10.46c4.26-11.58,15.38-19.84,28.44-19.84c13.06,0,24.18,8.26,28.44,19.84
			C326.846,441.004,327.506,444.524,327.506,448.204z"/>
		<path style="fill:#5A5555;" d="M413.306,448.204c0,16.74-13.56,30.3-30.3,30.3c-16.73,0-30.3-13.56-30.3-30.3
			c0-3.68,0.66-7.2,1.86-10.46c4.26-11.58,15.39-19.84,28.44-19.84c13.06,0,24.18,8.26,28.44,19.84
			C412.646,441.004,413.306,444.524,413.306,448.204z"/>
		<path style="fill:#D63030;" d="M411.566,197.624v42.43c0,15.26-12.48,27.75-27.75,27.75h-1.62c-15.26,0-27.75-12.49-27.75-27.75
			v-42.43c0-15.27,12.49-27.76,27.75-27.76h1.62C399.086,169.864,411.566,182.354,411.566,197.624z"/>
	</g>
	<g>
		<path style="fill:#F44545;" d="M411.566,319.554v25.98c0,15.71-12.85,28.57-28.56,28.57c-15.71,0-28.56-12.86-28.56-28.57v-25.98
			c0-15.71,12.85-28.56,28.56-28.56c7.85,0,14.99,3.21,20.17,8.39S411.566,311.704,411.566,319.554z"/>
		<path style="fill:#736E6E;" d="M153.786,189.714c-4.26,11.58-15.39,19.83-28.44,19.83c-13.06,0-24.18-8.25-28.44-19.83
			c4.25-11.59,15.38-19.85,28.44-19.85S149.536,178.124,153.786,189.714z"/>
		<path style="fill:#736E6E;" d="M239.716,189.714c-4.26,11.58-15.39,19.83-28.44,19.83c-13.06,0-24.18-8.25-28.44-19.83
			c4.25-11.59,15.38-19.85,28.44-19.85S235.466,178.124,239.716,189.714z"/>
		<path style="fill:#736E6E;" d="M325.646,189.714c-4.26,11.58-15.38,19.83-28.44,19.83c-13.06,0-24.18-8.25-28.44-19.83
			c4.25-11.59,15.38-19.85,28.44-19.85C310.266,169.864,321.396,178.124,325.646,189.714z"/>
		<path style="fill:#736E6E;" d="M153.786,271.984c-4.26,11.58-15.39,19.84-28.44,19.84c-13.06,0-24.18-8.26-28.44-19.84
			c4.26-11.58,15.38-19.84,28.44-19.84C138.396,252.144,149.526,260.404,153.786,271.984z"/>
		<path style="fill:#736E6E;" d="M239.716,271.984c-4.26,11.58-15.39,19.84-28.44,19.84c-13.06,0-24.18-8.26-28.44-19.84
			c4.26-11.58,15.38-19.84,28.44-19.84C224.326,252.144,235.456,260.404,239.716,271.984z"/>
		<path style="fill:#736E6E;" d="M325.646,271.984c-4.26,11.58-15.38,19.84-28.44,19.84c-13.06,0-24.18-8.26-28.44-19.84
			c4.26-11.58,15.38-19.84,28.44-19.84C310.266,252.144,321.386,260.404,325.646,271.984z"/>
		<path style="fill:#736E6E;" d="M153.786,354.264c-4.26,11.58-15.39,19.84-28.44,19.84c-13.06,0-24.18-8.26-28.44-19.84
			c4.25-11.58,15.38-19.84,28.44-19.84S149.536,342.684,153.786,354.264z"/>
		<path style="fill:#736E6E;" d="M239.716,354.264c-4.26,11.58-15.39,19.84-28.44,19.84c-13.06,0-24.18-8.26-28.44-19.84
			c4.25-11.58,15.38-19.84,28.44-19.84S235.466,342.684,239.716,354.264z"/>
		<path style="fill:#736E6E;" d="M325.646,354.264c-4.26,11.58-15.38,19.84-28.44,19.84c-13.06,0-24.18-8.26-28.44-19.84
			c4.25-11.58,15.38-19.84,28.44-19.84C310.266,334.424,321.396,342.684,325.646,354.264z"/>
		<path style="fill:#736E6E;" d="M153.786,437.744c-4.26,11.58-15.39,19.84-28.44,19.84c-13.06,0-24.18-8.26-28.44-19.84
			c4.26-11.58,15.38-19.84,28.44-19.84C138.396,417.904,149.526,426.164,153.786,437.744z"/>
		<path style="fill:#736E6E;" d="M239.716,437.744c-4.26,11.58-15.39,19.84-28.44,19.84c-13.06,0-24.18-8.26-28.44-19.84
			c4.26-11.58,15.38-19.84,28.44-19.84C224.326,417.904,235.456,426.164,239.716,437.744z"/>
		<path style="fill:#736E6E;" d="M325.646,437.744c-4.26,11.58-15.38,19.84-28.44,19.84c-13.06,0-24.18-8.26-28.44-19.84
			c4.26-11.58,15.38-19.84,28.44-19.84C310.266,417.904,321.386,426.164,325.646,437.744z"/>
		<path style="fill:#736E6E;" d="M411.446,437.744c-4.26,11.58-15.38,19.84-28.44,19.84c-13.05,0-24.18-8.26-28.44-19.84
			c4.26-11.58,15.39-19.84,28.44-19.84C396.066,417.904,407.186,426.164,411.446,437.744z"/>
		<path style="fill:#F44545;" d="M411.566,197.624v21.51c0,15.26-12.48,27.75-27.75,27.75h-1.62c-15.26,0-27.75-12.49-27.75-27.75
			v-21.51c0-15.27,12.49-27.76,27.75-27.76h1.62C399.086,169.864,411.566,182.354,411.566,197.624z"/>
	</g>
	<path style="fill:#F95F00;" d="M140.996,500.624h-37.81c-21.333,0-39.442-13.457-46.75-31.38c-0.01-0.01-0.02-0.02-0.02-0.03
		c-0.406-0.978-1.75-4.685-1.75-4.97c-3.868-12.815-1.207-4.449-2.04-320.61h37.81v306.43
		C90.436,477.874,113.196,500.624,140.996,500.624z"/>
	<g>
		<path style="fill:#F95F00;" d="M140.996,500.624h-37.81c-21.333,0-39.442-13.457-46.75-31.38c-0.01-0.01-0.02-0.02-0.02-0.03
			c-0.406-0.978-1.75-4.685-1.75-4.97c-3.868-12.815-1.207-4.449-2.04-320.61h37.81v306.43
			C90.436,477.874,113.196,500.624,140.996,500.624z"/>
	</g>
	<g>
		<path d="M405.163,0H103.189C71.174,0,45.129,26.045,45.129,58.06c0,411.93-0.962,396.952,2.288,408.108
			c8.959,30.985,37.572,39.054,37.472,38.989c15.824,5.271-1.648,1.893,320.274,2.972c0.105-0.004,3.547,0.026,7.54-0.506
			c28.724-3.744,50.52-28.397,50.52-57.554V143.638V58.06C463.223,26.045,437.178,0,405.163,0z M446.155,463.239
			c-5.537,17.192-21.83,29.89-40.992,29.89c-330.342,0-306.153,0.941-315.526-2.199c-17.194-5.753-29.508-22.058-29.508-40.861
			c0-3.26,0-277.597,0-298.931h296.898c4.143,0,7.5-3.358,7.5-7.5s-3.357-7.5-7.5-7.5H60.129V58.06
			c0-23.743,19.317-43.06,43.061-43.06h301.974c23.743,0,43.06,19.317,43.06,43.06v78.078h-61.196c-4.143,0-7.5,3.358-7.5,7.5
			s3.357,7.5,7.5,7.5h61.196C448.201,470.784,449.105,453.397,446.155,463.239z"/>
		<path d="M425.416,88.644V62.806c0-17.429-14.179-31.608-31.607-31.608H188.326c-4.142,0-7.5,3.358-7.5,7.5s3.358,7.5,7.5,7.5
			h205.483c9.157,0,16.607,7.45,16.607,16.608v25.838c0,9.158-7.45,16.608-16.607,16.608H114.543
			c-9.158,0-16.608-7.45-16.608-16.608V62.806c0-9.158,7.45-16.608,16.608-16.608h43.783c4.142,0,7.5-3.358,7.5-7.5
			s-3.358-7.5-7.5-7.5h-43.783c-17.429,0-31.608,14.179-31.608,31.608v25.838c0,17.429,14.179,31.608,31.608,31.608h279.266
			C411.237,120.252,425.416,106.073,425.416,88.644z"/>
		<path d="M383.008,402.524c19.885,0,36.063-16.178,36.063-36.063v-46.903c0-19.885-16.178-36.063-36.063-36.063
			s-36.063,16.178-36.063,36.063v46.903C346.945,386.347,363.123,402.524,383.008,402.524z M361.945,319.559
			c0-11.614,9.448-21.063,21.063-21.063s21.063,9.449,21.063,21.063v46.903c0,11.614-9.448,21.063-21.063,21.063
			s-21.063-9.449-21.063-21.063V319.559z"/>
		<path d="M125.344,162.37c-20.844,0-37.802,16.958-37.802,37.802c0,20.844,16.958,37.802,37.802,37.802
			c20.844,0,37.802-16.958,37.802-37.802C163.146,179.328,146.188,162.37,125.344,162.37z M125.344,222.974
			c-12.573,0-22.802-10.229-22.802-22.802c0-12.573,10.229-22.802,22.802-22.802c12.573,0,22.802,10.229,22.802,22.802
			C148.146,212.745,137.917,222.974,125.344,222.974z"/>
		<path d="M211.275,162.37c-20.844,0-37.802,16.958-37.802,37.802c0,20.844,16.958,37.802,37.802,37.802
			s37.802-16.958,37.802-37.802C249.077,179.328,232.119,162.37,211.275,162.37z M211.275,222.974
			c-12.573,0-22.802-10.229-22.802-22.802c0-12.573,10.229-22.802,22.802-22.802s22.802,10.229,22.802,22.802
			C234.077,212.745,223.848,222.974,211.275,222.974z"/>
		<path d="M297.206,162.37c-20.845,0-37.803,16.958-37.803,37.802c0,20.844,16.958,37.802,37.803,37.802
			c20.844,0,37.802-16.958,37.802-37.802C335.008,179.328,318.05,162.37,297.206,162.37z M297.206,222.974
			c-12.573,0-22.803-10.229-22.803-22.802c0-12.573,10.229-22.802,22.803-22.802s22.802,10.229,22.802,22.802
			C320.008,212.745,309.779,222.974,297.206,222.974z"/>
		<path d="M125.344,244.645c-20.844,0-37.802,16.958-37.802,37.802c0,20.844,16.958,37.802,37.802,37.802
			c20.844,0,37.802-16.958,37.802-37.802C163.146,261.603,146.188,244.645,125.344,244.645z M125.344,305.249
			c-12.573,0-22.802-10.229-22.802-22.802c0-12.573,10.229-22.802,22.802-22.802c12.573,0,22.802,10.229,22.802,22.802
			C148.146,295.02,137.917,305.249,125.344,305.249z"/>
		<path d="M211.275,244.645c-20.844,0-37.802,16.958-37.802,37.802c0,20.844,16.958,37.802,37.802,37.802
			s37.802-16.958,37.802-37.802C249.077,261.603,232.119,244.645,211.275,244.645z M211.275,305.249
			c-12.573,0-22.802-10.229-22.802-22.802c0-12.573,10.229-22.802,22.802-22.802s22.802,10.229,22.802,22.802
			C234.077,295.02,223.848,305.249,211.275,305.249z"/>
		<path d="M297.206,244.645c-20.845,0-37.803,16.958-37.803,37.802c0,20.844,16.958,37.802,37.803,37.802
			c20.844,0,37.802-16.958,37.802-37.802C335.008,261.603,318.05,244.645,297.206,244.645z M297.206,305.249
			c-12.573,0-22.803-10.229-22.803-22.802c0-12.573,10.229-22.802,22.803-22.802s22.802,10.229,22.802,22.802
			C320.008,295.02,309.779,305.249,297.206,305.249z"/>
		<path d="M125.344,326.92c-20.844,0-37.802,16.958-37.802,37.802c0,20.844,16.958,37.802,37.802,37.802
			c20.844,0,37.802-16.958,37.802-37.802C163.146,343.878,146.188,326.92,125.344,326.92z M125.344,387.524
			c-12.573,0-22.802-10.229-22.802-22.802c0-12.573,10.229-22.802,22.802-22.802c12.573,0,22.802,10.229,22.802,22.802
			C148.146,377.295,137.917,387.524,125.344,387.524z"/>
		<path d="M211.275,326.92c-20.844,0-37.802,16.958-37.802,37.802c0,20.844,16.958,37.802,37.802,37.802
			s37.802-16.958,37.802-37.802C249.077,343.878,232.119,326.92,211.275,326.92z M211.275,387.524
			c-12.573,0-22.802-10.229-22.802-22.802c0-12.573,10.229-22.802,22.802-22.802s22.802,10.229,22.802,22.802
			C234.077,377.295,223.848,387.524,211.275,387.524z"/>
		<path d="M297.206,326.92c-20.845,0-37.803,16.958-37.803,37.802c0,20.844,16.958,37.802,37.803,37.802
			c20.844,0,37.802-16.958,37.802-37.802C335.008,343.878,318.05,326.92,297.206,326.92z M297.206,387.524
			c-12.573,0-22.803-10.229-22.803-22.802c0-12.573,10.229-22.802,22.803-22.802s22.802,10.229,22.802,22.802
			C320.008,377.295,309.779,387.524,297.206,387.524z"/>
		<path d="M125.344,410.404c-20.844,0-37.802,16.958-37.802,37.802c0,20.844,16.958,37.802,37.802,37.802
			c20.844,0,37.802-16.958,37.802-37.802C163.146,427.362,146.188,410.404,125.344,410.404z M125.344,471.008
			c-12.573,0-22.802-10.229-22.802-22.802c0-12.573,10.229-22.802,22.802-22.802c12.573,0,22.802,10.229,22.802,22.802
			C148.146,460.779,137.917,471.008,125.344,471.008z"/>
		<path d="M211.275,410.404c-20.844,0-37.802,16.958-37.802,37.802c0,20.844,16.958,37.802,37.802,37.802
			s37.802-16.958,37.802-37.802C249.077,427.362,232.119,410.404,211.275,410.404z M211.275,471.008
			c-12.573,0-22.802-10.229-22.802-22.802c0-12.573,10.229-22.802,22.802-22.802s22.802,10.229,22.802,22.802
			C234.077,460.779,223.848,471.008,211.275,471.008z"/>
		<path d="M297.206,410.404c-20.845,0-37.803,16.958-37.803,37.802c0,20.844,16.958,37.802,37.803,37.802
			c20.844,0,37.802-16.958,37.802-37.802C335.008,427.362,318.05,410.404,297.206,410.404z M297.206,471.008
			c-12.573,0-22.803-10.229-22.803-22.802c0-12.573,10.229-22.802,22.803-22.802s22.802,10.229,22.802,22.802
			C320.008,460.779,309.779,471.008,297.206,471.008z"/>
		<path d="M383.008,410.404c-20.845,0-37.803,16.958-37.803,37.802c0,20.844,16.958,37.802,37.803,37.802
			c20.844,0,37.802-16.958,37.802-37.802C420.81,427.362,403.852,410.404,383.008,410.404z M383.008,471.008
			c-12.573,0-22.803-10.229-22.803-22.802c0-12.573,10.229-22.802,22.803-22.802s22.802,10.229,22.802,22.802
			C405.81,460.779,395.581,471.008,383.008,471.008z"/>
		<path d="M382.198,275.307c0.165-0.049,24.103,1.783,34.05-21.458c1.629-3.808-0.137-8.216-3.944-9.846
			c-3.81-1.63-8.216,0.136-9.847,3.944c-8.618,20.142-40.512,14.445-40.512-7.892v-42.432c0-11.167,9.085-20.252,20.253-20.252
			h1.619c11.168,0,20.253,9.085,20.253,20.252v23.58c0,4.142,3.357,7.5,7.5,7.5s7.5-3.358,7.5-7.5v-23.58
			c0-19.438-15.814-35.252-35.253-35.252h-1.619c-19.438,0-35.253,15.814-35.253,35.252v42.432
			C346.945,259.493,362.76,275.307,382.198,275.307z"/>
	</g>
</g>
<g>
</g>
<g>
</g>
<g>
</g>
<g>
</g>
<g>
</g>
<g>
</g>
<g>
</g>
<g>
</g>
<g>
</g>
<g>
</g>
<g>
</g>
<g>
</g>
<g>
</g>
<g>
</g>
<g>
</g>
</svg>
