<?xml version="1.0" encoding="iso-8859-1"?>
<!-- Generator: Adobe Illustrator 19.0.0, SVG Export Plug-In . SVG Version: 6.00 Build 0)  -->
<svg version="1.1" id="Layer_1" xmlns="http://www.w3.org/2000/svg" xmlns:xlink="http://www.w3.org/1999/xlink" x="0px" y="0px"
	 viewBox="0 0 510.19 510.19" style="enable-background:new 0 0 510.19 510.19;" xml:space="preserve">
<g>
	<path style="fill:#B9AFAE;" d="M431.784,502.694H113.738c-2.273,0-4.116-1.843-4.116-4.116V43.809c0-2.273,1.843-4.116,4.116-4.116
		h318.047c2.273,0,4.116,1.843,4.116,4.116v454.769C435.9,500.851,434.057,502.694,431.784,502.694z"/>
	<path style="fill:#DCD2CD;" d="M400.57,11.61v392.78l-65.34,66.11H78.4c-2.27,0-4.11-1.85-4.11-4.12V11.61
		c0-2.27,1.84-4.12,4.11-4.12h318.05C398.72,7.49,400.57,9.34,400.57,11.61z"/>
	<path style="fill:#EBE1DC;" d="M400.57,11.61v392.78l-65.34,66.11H110.02c-2.28,0-4.12-1.85-4.12-4.12V11.61
		c0-2.27,1.84-4.12,4.12-4.12h286.43C398.72,7.49,400.57,9.34,400.57,11.61z"/>
	<path style="fill:#DCD2CD;" d="M400.567,404.392l-65.334,66.103V414.56c0-5.615,4.552-10.168,10.168-10.168H400.567z"/>
	<g>
		<path d="M221.241,110.487c-28.042,91.604-27.771,90.049-27.771,91.003c0,6.931,16.067,11.128,17.944,3.988l5.412-18.941h32.614
			l5.412,18.941c1.911,7.266,17.944,2.757,17.944-3.988c0-0.427-0.143-0.854-0.285-1.424l-27.486-89.579
			C242.524,102.15,223.766,102.07,221.241,110.487z M245.452,172.011h-24.781l12.391-43.721L245.452,172.011z"/>
		<path d="M305.698,146.376c-4.273,0-7.691,2.848-7.691,5.839v15.096h-15.239c-7.389,0-7.84,15.238,0,15.238h15.239v15.238
			c0,3.418,3.418,5.697,7.691,5.697c4.557,0,7.548-2.278,7.548-5.697v-15.238h15.095c2.991,0,5.982-2.991,5.982-7.548
			c0-4.273-2.99-7.691-5.982-7.691h-15.095v-15.096C313.246,149.224,310.255,146.376,305.698,146.376z"/>
		<path d="M271.755,61.062c20.86,0.278,36.954,3.479,47.837,9.513c3.621,2.009,8.187,0.7,10.196-2.922
			c2.008-3.623,0.7-8.188-2.923-10.196c-16.205-8.986-37.953-11.403-56.411-11.403c-60.309,0-109.801,48.624-110.643,109.075
			c-0.86,61.753,48.83,112.222,110.638,112.222c134.744,0,130.749-220.333-17.774-192.562c-4.072,0.761-6.756,4.679-5.994,8.75
			c0.761,4.072,4.691,6.756,8.75,5.994c120.482-22.521,127.48,144.262,31.959,161.323c-5.553,0.992-11.252,1.495-16.94,1.495
			c-53.391,0-96.381-43.583-95.64-97.013C175.543,102.648,219.024,60.325,271.755,61.062z"/>
		<path d="M161.612,72.775h-47.249c-4.143,0-7.5,3.358-7.5,7.5s3.357,7.5,7.5,7.5h47.249c4.143,0,7.5-3.358,7.5-7.5
			S165.755,72.775,161.612,72.775z"/>
		<path d="M114.363,145.135h23.624c4.143,0,7.5-3.358,7.5-7.5s-3.357-7.5-7.5-7.5h-23.624c-4.143,0-7.5,3.358-7.5,7.5
			S110.22,145.135,114.363,145.135z"/>
		<path d="M114.363,202.496h27.793c4.143,0,7.5-3.358,7.5-7.5s-3.357-7.5-7.5-7.5h-27.793c-4.143,0-7.5,3.358-7.5,7.5
			S110.22,202.496,114.363,202.496z"/>
		<path d="M114.363,259.856h58.366c4.143,0,7.5-3.358,7.5-7.5s-3.357-7.5-7.5-7.5h-58.366c-4.143,0-7.5,3.358-7.5,7.5
			S110.22,259.856,114.363,259.856z"/>
		<path d="M114.363,317.217h240.412c4.143,0,7.5-3.358,7.5-7.5s-3.357-7.5-7.5-7.5H114.363c-4.143,0-7.5,3.358-7.5,7.5
			S110.22,317.217,114.363,317.217z"/>
		<path d="M114.363,374.577h240.412c4.143,0,7.5-3.358,7.5-7.5s-3.357-7.5-7.5-7.5H114.363c-4.143,0-7.5,3.358-7.5,7.5
			S110.22,374.577,114.363,374.577z"/>
		<path d="M114.363,431.938h168.149c4.143,0,7.5-3.358,7.5-7.5s-3.357-7.5-7.5-7.5H114.363c-4.143,0-7.5,3.358-7.5,7.5
			S110.22,431.938,114.363,431.938z"/>
		<path d="M431.78,32.19h-23.71V11.61c0-6.4-5.21-11.61-11.62-11.61H78.4C72,0,66.79,5.21,66.79,11.61V342.1
			c0,4.14,3.36,7.5,7.5,7.5s7.5-3.36,7.5-7.5V15h311.28c0,18.453,0,129.916,0,154.91c0,4.14,3.35,7.5,7.5,7.5
			c4.14,0,7.5-3.36,7.5-7.5V47.19h20.33v448H117.12V478c229.114-0.836,219.24,2.01,223.45-2.23l35.459-35.883
			c31.673-32.059,32.041-31.167,32.041-35.497V199.91c0-4.14-3.36-7.5-7.5-7.5c-4.15,0-7.5,3.36-7.5,7.5v196.982h-57.837
			c-4.143,0-7.5,3.358-7.5,7.5V463c-9.254,0-231.584,0-245.943,0v-90.9c0-4.14-3.36-7.5-7.5-7.5s-7.5,3.36-7.5,7.5v94.28
			c0,6.4,5.21,11.62,11.61,11.62h23.72v20.58c0,6.4,5.21,11.61,11.62,11.61h318.04c6.41,0,11.62-5.21,11.62-11.61V43.81
			C443.4,37.4,438.19,32.19,431.78,32.19z M342.733,411.892h39.876l-39.876,40.346V411.892z"/>
	</g>
</g>
<g>
</g>
<g>
</g>
<g>
</g>
<g>
</g>
<g>
</g>
<g>
</g>
<g>
</g>
<g>
</g>
<g>
</g>
<g>
</g>
<g>
</g>
<g>
</g>
<g>
</g>
<g>
</g>
<g>
</g>
</svg>
