<?xml version="1.0" encoding="iso-8859-1"?>
<!-- Generator: Adobe Illustrator 19.0.0, SVG Export Plug-In . SVG Version: 6.00 Build 0)  -->
<svg version="1.1" id="Layer_1" xmlns="http://www.w3.org/2000/svg" xmlns:xlink="http://www.w3.org/1999/xlink" x="0px" y="0px"
	 viewBox="0 0 509.04 509.04" style="enable-background:new 0 0 509.04 509.04;" xml:space="preserve">
<g>
	<path style="fill:#DCD2CD;" d="M498.96,52.25v440.31c0,4.96-4.03,8.98-8.99,8.98H19.07c-4.96,0-8.99-4.02-8.99-8.98V52.25
		c0-4.96,4.03-8.99,8.99-8.99h470.9C494.93,43.26,498.96,47.29,498.96,52.25z"/>
	<path style="fill:#EBE1DC;" d="M498.96,52.25v420.89H47.93c-4.96,0-8.99-4.02-8.99-8.98V43.26h451.03
		C494.93,43.26,498.96,47.29,498.96,52.25z"/>
	<path style="fill:#5A5555;" d="M116.52,19.5v47.53c0,6.6-5.4,12-12,12h-6c-6.6,0-12-5.4-12-12V19.5c0-6.6,5.4-12,12-12h6
		C111.12,7.5,116.52,12.9,116.52,19.5z"/>
	<path style="fill:#5A5555;" d="M422.52,19.5v47.53c0,6.6-5.4,12-12,12h-6c-6.6,0-12-5.4-12-12V19.5c0-6.6,5.4-12,12-12h6
		C417.12,7.5,422.52,12.9,422.52,19.5z"/>
	<path style="fill:#736E6E;" d="M116.52,19.5v45.53h-3c-6.6,0-12-5.4-12-12V7.5h3C111.12,7.5,116.52,12.9,116.52,19.5z"/>
	<path style="fill:#736E6E;" d="M422.52,19.5v45.53h-3c-6.6,0-12-5.4-12-12V7.5h3C417.12,7.5,422.52,12.9,422.52,19.5z"/>
	<path style="fill:#3E9DC3;" d="M97.893,128.588H45.806c-3.241,0-5.869,2.628-5.869,5.869v52.087c0,3.241,2.628,5.869,5.869,5.869
		h52.087c3.241,0,5.869-2.628,5.869-5.869v-52.087C103.761,131.216,101.134,128.588,97.893,128.588z"/>
	<path style="fill:#5CA33B;" d="M189.228,128.588h-52.087c-3.241,0-5.869,2.628-5.869,5.869v52.087c0,3.241,2.628,5.869,5.869,5.869
		h52.087c3.241,0,5.869-2.628,5.869-5.869v-52.087C195.097,131.216,192.469,128.588,189.228,128.588z"/>
	<path style="fill:#F44545;" d="M280.563,128.588h-52.087c-3.241,0-5.869,2.628-5.869,5.869v52.087c0,3.241,2.628,5.869,5.869,5.869
		h52.087c3.241,0,5.869-2.628,5.869-5.869v-52.087C286.432,131.216,283.805,128.588,280.563,128.588z"/>
	<path style="fill:#FF883E;" d="M371.899,128.588h-52.087c-3.241,0-5.869,2.628-5.869,5.869v52.087c0,3.241,2.628,5.869,5.869,5.869
		h52.087c3.241,0,5.869-2.628,5.869-5.869v-52.087C377.768,131.216,375.14,128.588,371.899,128.588z"/>
	<path style="fill:#B4AAAA;" d="M463.234,128.588h-52.087c-3.241,0-5.869,2.628-5.869,5.869v52.087c0,3.241,2.628,5.869,5.869,5.869
		h52.087c3.241,0,5.869-2.628,5.869-5.869v-52.087C469.103,131.216,466.476,128.588,463.234,128.588z"/>
	<path style="fill:#3E9DC3;" d="M97.893,221.588H45.806c-3.241,0-5.869,2.628-5.869,5.869v52.087c0,3.241,2.628,5.869,5.869,5.869
		h52.087c3.241,0,5.869-2.628,5.869-5.869v-52.087C103.761,224.216,101.134,221.588,97.893,221.588z"/>
	<path style="fill:#5CA33B;" d="M189.228,221.588h-52.087c-3.241,0-5.869,2.628-5.869,5.869v52.087c0,3.241,2.628,5.869,5.869,5.869
		h52.087c3.241,0,5.869-2.628,5.869-5.869v-52.087C195.097,224.216,192.469,221.588,189.228,221.588z"/>
	<path style="fill:#F44545;" d="M280.563,221.588h-52.087c-3.241,0-5.869,2.628-5.869,5.869v52.087c0,3.241,2.628,5.869,5.869,5.869
		h52.087c3.241,0,5.869-2.628,5.869-5.869v-52.087C286.432,224.216,283.805,221.588,280.563,221.588z"/>
	<path style="fill:#FF883E;" d="M371.899,221.588h-52.087c-3.241,0-5.869,2.628-5.869,5.869v52.087c0,3.241,2.628,5.869,5.869,5.869
		h52.087c3.241,0,5.869-2.628,5.869-5.869v-52.087C377.768,224.216,375.14,221.588,371.899,221.588z"/>
	<path style="fill:#B4AAAA;" d="M463.234,221.588h-52.087c-3.241,0-5.869,2.628-5.869,5.869v52.087c0,3.241,2.628,5.869,5.869,5.869
		h52.087c3.241,0,5.869-2.628,5.869-5.869v-52.087C469.103,224.216,466.476,221.588,463.234,221.588z"/>
	<path style="fill:#3E9DC3;" d="M97.893,314.588H45.806c-3.241,0-5.869,2.628-5.869,5.869v52.087c0,3.241,2.628,5.869,5.869,5.869
		h52.087c3.241,0,5.869-2.628,5.869-5.869v-52.087C103.761,317.216,101.134,314.588,97.893,314.588z"/>
	<path style="fill:#5CA33B;" d="M189.228,314.588h-52.087c-3.241,0-5.869,2.628-5.869,5.869v52.087c0,3.241,2.628,5.869,5.869,5.869
		h52.087c3.241,0,5.869-2.628,5.869-5.869v-52.087C195.097,317.216,192.469,314.588,189.228,314.588z"/>
	<path style="fill:#F44545;" d="M280.563,314.588h-52.087c-3.241,0-5.869,2.628-5.869,5.869v52.087c0,3.241,2.628,5.869,5.869,5.869
		h52.087c3.241,0,5.869-2.628,5.869-5.869v-52.087C286.432,317.216,283.805,314.588,280.563,314.588z"/>
	<path style="fill:#FF883E;" d="M371.899,314.588h-52.087c-3.241,0-5.869,2.628-5.869,5.869v52.087c0,3.241,2.628,5.869,5.869,5.869
		h52.087c3.241,0,5.869-2.628,5.869-5.869v-52.087C377.768,317.216,375.14,314.588,371.899,314.588z"/>
	<path style="fill:#B4AAAA;" d="M469.103,372.544v-52.087c0-3.241-2.628-5.869-5.869-5.869h-52.087
		c-3.241,0-5.869,2.628-5.869,5.869v52.087c0,3.241,2.628,5.869,5.869,5.869h52.087
		C466.476,378.413,469.103,375.785,469.103,372.544z"/>
	<path style="fill:#3E9DC3;" d="M97.893,407.588H45.806c-3.241,0-5.869,2.628-5.869,5.869v52.087c0,3.241,2.628,5.869,5.869,5.869
		h52.087c3.241,0,5.869-2.628,5.869-5.869v-52.087C103.761,410.216,101.134,407.588,97.893,407.588z"/>
	<path style="fill:#5CA33B;" d="M189.228,407.588h-52.087c-3.241,0-5.869,2.628-5.869,5.869v52.087c0,3.241,2.628,5.869,5.869,5.869
		h52.087c3.241,0,5.869-2.628,5.869-5.869v-52.087C195.097,410.216,192.469,407.588,189.228,407.588z"/>
	<path style="fill:#F44545;" d="M280.563,407.588h-52.087c-3.241,0-5.869,2.628-5.869,5.869v52.087c0,3.241,2.628,5.869,5.869,5.869
		h52.087c3.241,0,5.869-2.628,5.869-5.869v-52.087C286.432,410.216,283.805,407.588,280.563,407.588z"/>
	<path style="fill:#FF883E;" d="M371.899,407.588h-52.087c-3.241,0-5.869,2.628-5.869,5.869v52.087c0,3.241,2.628,5.869,5.869,5.869
		h52.087c3.241,0,5.869-2.628,5.869-5.869v-52.087C377.768,410.216,375.14,407.588,371.899,407.588z"/>
	<path style="fill:#B4AAAA;" d="M463.234,407.588h-52.087c-3.241,0-5.869,2.628-5.869,5.869v52.087c0,3.241,2.628,5.869,5.869,5.869
		h52.087c3.241,0,5.869-2.628,5.869-5.869v-52.087C469.103,410.216,466.476,407.588,463.234,407.588z"/>
	<g>
		<path d="M489.97,35.76h-59.95V19.5c0-10.75-8.75-19.5-19.5-19.5h-6c-10.75,0-19.5,8.75-19.5,19.5v16.26h-261V19.5
			c0-10.75-8.75-19.5-19.5-19.5h-6c-10.75,0-19.5,8.75-19.5,19.5v16.26H19.07c-9.09,0-16.49,7.4-16.49,16.49v440.31
			c0,9.09,7.4,16.48,16.49,16.48h425.35c4.14,0,7.5-3.36,7.5-7.5s-3.36-7.5-7.5-7.5H19.07c-0.82,0-1.49-0.66-1.49-1.48V52.25
			c0-0.82,0.67-1.49,1.49-1.49h59.95v16.27c0,10.75,8.75,19.5,19.5,19.5h6c10.75,0,19.5-8.75,19.5-19.5V50.76h261v16.27
			c0,10.75,8.75,19.5,19.5,19.5h6c10.75,0,19.5-8.75,19.5-19.5V50.76h59.95c0.82,0,1.49,0.67,1.49,1.49v440.31
			c0,0.82-0.67,1.48-1.49,1.48h-15.55c-4.14,0-7.5,3.36-7.5,7.5s3.36,7.5,7.5,7.5h15.55c9.09,0,16.49-7.39,16.49-16.48V52.25
			C506.46,43.16,499.06,35.76,489.97,35.76z M109.02,67.03c0,2.44-2.06,4.5-4.5,4.5h-6c-2.44,0-4.5-2.06-4.5-4.5
			c0-15.469,0-29.434,0-47.53c0-2.44,2.06-4.5,4.5-4.5h6c2.44,0,4.5,2.06,4.5,4.5c0,11.082,0,20.386,0,31.26V67.03z M415.02,67.03
			c0,2.44-2.06,4.5-4.5,4.5h-6c-2.44,0-4.5-2.06-4.5-4.5c0-15.469,0-29.434,0-47.53c0-2.44,2.06-4.5,4.5-4.5h6
			c2.44,0,4.5,2.06,4.5,4.5c0,11.082,0,20.386,0,31.26V67.03z"/>
		<path d="M111.261,134.457c0-7.372-5.997-13.369-13.369-13.369H45.806c-7.372,0-13.369,5.997-13.369,13.369v52.087
			c0,7.372,5.998,13.369,13.369,13.369h52.087c7.372,0,13.369-5.997,13.369-13.369V134.457z M96.261,184.913H47.437v-48.825h48.825
			V184.913z"/>
		<path d="M202.597,134.457c0-7.372-5.998-13.369-13.369-13.369h-52.087c-7.372,0-13.369,5.997-13.369,13.369v52.087
			c0,7.372,5.998,13.369,13.369,13.369h11.38c4.142,0,7.5-3.357,7.5-7.5s-3.358-7.5-7.5-7.5h-9.75v-48.825h48.825v48.825h-9.076
			c-4.142,0-7.5,3.357-7.5,7.5s3.358,7.5,7.5,7.5h10.707c7.372,0,13.369-5.997,13.369-13.369V134.457z"/>
		<path d="M293.933,134.457c0-7.372-5.998-13.369-13.369-13.369h-52.087c-7.372,0-13.369,5.997-13.369,13.369v52.087
			c0,7.372,5.998,13.369,13.369,13.369h52.087c7.372,0,13.369-5.997,13.369-13.369V134.457z M278.933,184.913h-48.825v-48.825
			h48.825V184.913z"/>
		<path d="M385.268,134.457c0-7.372-5.998-13.369-13.369-13.369h-52.087c-7.372,0-13.369,5.997-13.369,13.369v52.087
			c0,7.372,5.998,13.369,13.369,13.369h52.087c7.372,0,13.369-5.997,13.369-13.369V134.457z M370.268,184.913h-48.825v-48.825
			h48.825V184.913z"/>
		<path d="M397.779,186.544c0,7.372,5.997,13.369,13.369,13.369h52.087c7.372,0,13.369-5.997,13.369-13.369v-52.087
			c0-7.372-5.998-13.369-13.369-13.369h-52.087c-7.372,0-13.369,5.997-13.369,13.369V186.544z M412.779,136.088h48.825v48.825
			h-48.825V136.088z"/>
		<path d="M111.261,227.457c0-7.372-5.997-13.369-13.369-13.369H45.806c-7.372,0-13.369,5.997-13.369,13.369v52.087
			c0,7.372,5.998,13.369,13.369,13.369h52.087c7.372,0,13.369-5.997,13.369-13.369V227.457z M96.261,277.913H47.437v-48.825h48.825
			V277.913z"/>
		<path d="M202.597,227.457c0-7.372-5.998-13.369-13.369-13.369h-52.087c-7.372,0-13.369,5.997-13.369,13.369v52.087
			c0,7.372,5.998,13.369,13.369,13.369h52.087c7.372,0,13.369-5.997,13.369-13.369V227.457z M187.597,277.913h-48.825v-48.825
			h48.825V277.913z"/>
		<path d="M293.933,227.457c0-7.372-5.998-13.369-13.369-13.369h-52.087c-7.372,0-13.369,5.997-13.369,13.369v52.087
			c0,7.372,5.998,13.369,13.369,13.369h52.087c7.372,0,13.369-5.997,13.369-13.369V227.457z M278.933,277.913h-48.825v-48.825
			h48.825V277.913z"/>
		<path d="M385.268,227.457c0-7.372-5.998-13.369-13.369-13.369h-52.087c-7.372,0-13.369,5.997-13.369,13.369v52.087
			c0,7.372,5.998,13.369,13.369,13.369h52.087c7.372,0,13.369-5.997,13.369-13.369V227.457z M370.268,277.913h-48.825v-48.825
			h48.825V277.913z"/>
		<path d="M397.779,279.544c0,7.372,5.997,13.369,13.369,13.369h52.087c7.372,0,13.369-5.997,13.369-13.369v-52.087
			c0-7.372-5.998-13.369-13.369-13.369h-52.087c-7.372,0-13.369,5.997-13.369,13.369V279.544z M412.779,229.088h48.825v48.825
			h-48.825V229.088z"/>
		<path d="M111.261,320.457c0-7.372-5.997-13.369-13.369-13.369H45.806c-7.372,0-13.369,5.997-13.369,13.369v52.087
			c0,7.372,5.998,13.369,13.369,13.369h52.087c7.372,0,13.369-5.997,13.369-13.369V320.457z M96.261,370.913H47.437v-48.825h48.825
			V370.913z"/>
		<path d="M202.597,320.457c0-7.372-5.998-13.369-13.369-13.369h-52.087c-7.372,0-13.369,5.997-13.369,13.369v52.087
			c0,7.372,5.998,13.369,13.369,13.369h52.087c7.372,0,13.369-5.997,13.369-13.369V320.457z M187.597,370.913h-48.825v-48.825
			h48.825V370.913z"/>
		<path d="M293.933,320.457c0-7.372-5.998-13.369-13.369-13.369h-52.087c-7.372,0-13.369,5.997-13.369,13.369v52.087
			c0,7.372,5.998,13.369,13.369,13.369h52.087c7.372,0,13.369-5.997,13.369-13.369V320.457z M278.933,370.913h-48.825v-48.825
			h48.825V370.913z"/>
		<path d="M385.268,320.457c0-7.372-5.998-13.369-13.369-13.369h-52.087c-7.372,0-13.369,5.997-13.369,13.369v52.087
			c0,7.372,5.998,13.369,13.369,13.369h52.087c7.372,0,13.369-5.997,13.369-13.369V320.457z M370.268,370.913h-48.825v-48.825
			h48.825V370.913z"/>
		<path d="M405.279,346.338c-4.142,0-7.5,3.357-7.5,7.5v18.706c0,7.372,5.997,13.369,13.369,13.369h52.087
			c7.372,0,13.369-5.997,13.369-13.369v-52.087c0-7.372-5.998-13.369-13.369-13.369h-52.087c-7.372,0-13.369,5.997-13.369,13.369
			v3.381c0,4.143,3.358,7.5,7.5,7.5s7.5-3.357,7.5-7.5v-1.75h48.825v48.825h-48.825v-17.075
			C412.779,349.695,409.421,346.338,405.279,346.338z"/>
		<path d="M45.806,478.913h52.087c7.372,0,13.369-5.997,13.369-13.369v-52.087c0-7.372-5.997-13.369-13.369-13.369H45.806
			c-7.372,0-13.369,5.997-13.369,13.369v52.087C32.437,472.916,38.434,478.913,45.806,478.913z M47.437,415.088h48.825v48.825
			H47.437V415.088z"/>
		<path d="M189.228,400.088h-52.087c-7.372,0-13.369,5.997-13.369,13.369v52.087c0,7.372,5.998,13.369,13.369,13.369h52.087
			c7.372,0,13.369-5.997,13.369-13.369v-52.087C202.597,406.085,196.6,400.088,189.228,400.088z M187.597,463.913h-48.825v-48.825
			h48.825V463.913z"/>
		<path d="M280.563,400.088h-52.087c-7.372,0-13.369,5.997-13.369,13.369v52.087c0,7.372,5.998,13.369,13.369,13.369h52.087
			c7.372,0,13.369-5.997,13.369-13.369v-52.087C293.933,406.085,287.935,400.088,280.563,400.088z M278.933,463.913h-48.825v-48.825
			h48.825V463.913z"/>
		<path d="M371.899,400.088h-52.087c-7.372,0-13.369,5.997-13.369,13.369v52.087c0,7.372,5.998,13.369,13.369,13.369h52.087
			c7.372,0,13.369-5.997,13.369-13.369v-52.087C385.268,406.085,379.271,400.088,371.899,400.088z M370.268,463.913h-48.825v-48.825
			h48.825V463.913z"/>
		<path d="M397.779,465.544c0,7.372,5.997,13.369,13.369,13.369h52.087c7.372,0,13.369-5.997,13.369-13.369v-52.087
			c0-7.372-5.998-13.369-13.369-13.369h-52.087c-7.372,0-13.369,5.997-13.369,13.369V465.544z M412.779,415.088h48.825v48.825
			h-48.825V415.088z"/>
		<path d="M38.816,110.863h61.583c4.142,0,7.5-3.357,7.5-7.5s-3.358-7.5-7.5-7.5H38.816c-4.142,0-7.5,3.357-7.5,7.5
			S34.674,110.863,38.816,110.863z"/>
		<path d="M192.855,110.863c4.142,0,7.5-3.357,7.5-7.5s-3.358-7.5-7.5-7.5h-61.583c-4.142,0-7.5,3.357-7.5,7.5s3.358,7.5,7.5,7.5
			H192.855z"/>
		<path d="M285.312,110.863c4.142,0,7.5-3.357,7.5-7.5s-3.358-7.5-7.5-7.5h-61.583c-4.142,0-7.5,3.357-7.5,7.5s3.358,7.5,7.5,7.5
			H285.312z"/>
		<path d="M377.768,95.863h-61.583c-4.142,0-7.5,3.357-7.5,7.5s3.358,7.5,7.5,7.5h61.583c4.142,0,7.5-3.357,7.5-7.5
			S381.91,95.863,377.768,95.863z"/>
		<path d="M408.641,110.863h61.583c4.142,0,7.5-3.357,7.5-7.5s-3.358-7.5-7.5-7.5h-61.583c-4.142,0-7.5,3.357-7.5,7.5
			S404.499,110.863,408.641,110.863z"/>
	</g>
</g>
<g>
</g>
<g>
</g>
<g>
</g>
<g>
</g>
<g>
</g>
<g>
</g>
<g>
</g>
<g>
</g>
<g>
</g>
<g>
</g>
<g>
</g>
<g>
</g>
<g>
</g>
<g>
</g>
<g>
</g>
</svg>
