<?xml version="1.0" encoding="iso-8859-1"?>
<!-- Generator: Adobe Illustrator 19.0.0, SVG Export Plug-In . SVG Version: 6.00 Build 0)  -->
<svg version="1.1" id="Layer_1" xmlns="http://www.w3.org/2000/svg" xmlns:xlink="http://www.w3.org/1999/xlink" x="0px" y="0px"
	 viewBox="0 0 504.709 504.709" style="enable-background:new 0 0 504.709 504.709;" xml:space="preserve">
<g>
	<path style="fill:#E3A76F;" d="M412.814,425.369v53.47c0,10.15-8.22,18.37-18.37,18.37h-284.2c-10.15,0-18.37-8.23-18.37-18.37
		v-53.47c0-47.07,38.21-84.9,84.89-84.9h1.96c3.25-0.01,6.09-0.01,8.55-0.01c17.16-0.01,16.51,0.13,18.25-0.21
		c5.33-1,9.35-5.68,9.35-11.33v-31.23c0-2.48-1.47-4.7-3.74-5.72c-32.23-14.47-54.81-46.9-54.81-84.37v-139.4h188.64v139.4
		c0,37.6-22.76,70.11-55.17,84.5v36.82c0,6.38,5.17,11.55,11.55,11.55c8.15,0.04,13.94,0.02,18.27,0.01
		c2.43-0.01,4.41-0.02,6.08-0.02c4.56,0,6.9,0.08,10.28,0.41C379.094,344.919,412.814,381.209,412.814,425.369z"/>
	<path style="fill:#F2BB88;" d="M412.814,425.369v53.47c0,10.15-8.22,18.37-18.37,18.37h-251.27c-10.14,0-18.36-8.22-18.36-18.36
		v-53.48c0-47.07,38.21-79.13,84.88-79.13c27.97-0.08,26.72,0.18,28.77-0.22c5.32-1,9.35-5.68,9.35-11.33v-37
		c0-2.48-1.47-4.7-3.74-5.72c-32.24-14.47-54.82-46.9-54.82-84.37v-139.4h155.71v139.4c0,37.6-22.76,70.11-55.17,84.5v36.82
		c0,6.38,5.17,11.55,11.55,11.55c25.21,0.11,27.82-0.27,34.63,0.4C379.094,344.919,412.814,381.209,412.814,425.369z"/>
	<path style="fill:#E3A76F;" d="M130.621,195.275c0,16.532,13.402,29.935,29.934,29.935v-59.869
		C144.024,165.341,130.621,178.743,130.621,195.275z"/>
	<path style="fill:#F2BB88;" d="M340.727,165.341v59.869c16.532,0,29.934-13.402,29.934-29.935
		C370.662,178.743,357.26,165.341,340.727,165.341z"/>
	<path style="fill:#EBE1DC;" d="M412.814,425.369v53.47c0,10.15-8.22,18.37-18.37,18.37h-284.2c-10.15,0-18.37-8.23-18.37-18.37
		v-53.47c0-47.07,38.21-84.9,84.89-84.9h1.96c3.25-0.01,6.09-0.01,8.55-0.01l65.17,64.77l67.17-64.75c2.43-0.01,4.41-0.02,6.08-0.02
		c4.56,0,6.9,0.08,10.28,0.41C379.094,344.919,412.814,381.209,412.814,425.369z"/>
	<path style="fill:#7C3F2C;" d="M374.334,18.819v92.74c0,14.25-13.19,25.91-29.32,25.91h-1.22c-16.13,0-29.32-11.66-29.32-25.91
		v-9.38c0-2.16-2.93-3.23-4.67-1.72c-11.49,10.12-31.36,14.6-47.19,17.05l-87.97,12.44l-27.43,3.88c-9.32,0-16.87-6.67-16.87-14.91
		v-23.59c0-19,11.2-39.85,28.06-52.49c8.2-6.15,17.74-10.36,27.98-11.47c2.68-0.29,5.38-0.28,8.06-0.11
		c17.16,1.06,112.34,5.55,163.03-22.31C365.054,4.779,374.334,10.169,374.334,18.819z"/>
	<path style="fill:#954C35;" d="M374.334,18.819v74.59c-0.66,0.04-1.32,0.06-1.99,0.06h-1.22c-16.13,0-29.32-11.66-29.32-25.91
		v-9.38c0-2.16-2.93-3.23-4.66-1.72c-11.5,10.12-31.37,14.6-47.2,17.05l-87.96,12.44l-27.44,3.88c-9.32,0-16.86-6.67-16.86-14.91
		v-23.59c0-2.8,0.24-5.64,0.72-8.49c8.2-6.15,17.74-10.36,27.98-11.47c2.68-0.29,5.38-0.28,8.06-0.11
		c17.16,1.06,112.34,5.55,163.03-22.31C365.054,4.779,374.334,10.169,374.334,18.819z"/>
	<path style="fill:#65B1CF;" d="M366.424,434.959v62.25h-69.59v-62.25c0-1.15,0.94-2.09,2.09-2.09h65.41
		C365.494,432.869,366.424,433.809,366.424,434.959z"/>
	<path style="fill:#7FBED7;" d="M366.424,434.959v62.25h-52.09v-62.25c0-1.15,0.94-2.09,2.09-2.09h47.91
		C365.494,432.869,366.424,433.809,366.424,434.959z"/>
	<path style="fill:#65B1CF;" d="M366.424,434.959v23.8h-69.59v-23.8c0-1.15,0.94-2.09,2.09-2.09h65.41
		C365.494,432.869,366.424,433.809,366.424,434.959z"/>
	<path style="fill:#3E9DC3;" d="M316.424,432.869c-1.15,0-2.09,0.94-2.09,2.09v23.8h-17.5v-23.8c0-1.15,0.94-2.09,2.09-2.09H316.424
		z"/>
	<path style="fill:#DCD2CD;" d="M119.374,425.369v53.47c0,10.14,8.22,18.37,18.37,18.37h-27.5c-10.15,0-18.37-8.23-18.37-18.37
		v-53.47c0-47.07,38.21-84.9,84.89-84.9h1.96c3.25-0.01,6.09-0.01,8.55-0.01l1.45,1.44
		C149.394,349.189,119.374,383.649,119.374,425.369z"/>
	<path style="fill:#B4AAAA;" d="M360.159,388.944l-25.884-49.275c-2.339-4.453-8.273-5.354-11.845-1.912l-67,64.59
		c-1.66,1.601-4.296,1.581-5.932-0.045l-66.98-66.562c-3.622-3.598-9.683-2.596-11.978,1.931
		c-24.063,47.594-26.077,51.287-26.447,52.345c-3.287,9.405,5.631,18.973,15.543,16.529c21.679-4.834,22.746-6.767,27.371-5.173
		c68.221,23.519,64.901,22.414,67.789,21.434c68.883-23.605,64.835-22.533,67.961-21.762l22.328,5.501
		C356.108,409.261,364.611,397.428,360.159,388.944z"/>
	<g>
		<path d="M419.564,413.549c-0.53-4.11-4.28-7-8.39-6.49c-4.11,0.53-7.02,4.29-6.49,8.4c1.087,8.442,0.445,10.462,0.63,63.38
			c0,5.99-4.88,10.87-10.86,10.87h-20.525v-56.839c0-4.143-3.357-7.5-7.5-7.5h-69.593c-4.143,0-7.5,3.357-7.5,7.5v56.839h-29.489
			v-68.624l57.847-19.707c0.738-0.252,1.43-0.616,2.053-1.078l25.341,6.243c4.534,1.118,9.192-0.214,12.45-3.566
			s4.458-8.043,3.21-12.548c-0.143-0.515-0.34-1.013-0.588-1.485l-21.088-40.145c24.547,3.521,45.828,18.528,57.452,40.72
			c1.34,2.56,3.95,4.03,6.66,4.03c5.531,0,9.275-5.933,6.63-10.99c-14.58-27.85-41.93-46.23-73.1-49.15
			c-7.283-0.728-10.025-0.325-35.37-0.44c-2.24,0-4.05-1.82-4.05-4.05v-32.07c26.34-13.27,45.23-37.28,52.2-65.18
			c16.43-3.96,28.67-18.77,28.67-36.39c0-16.55-10.78-30.62-25.7-35.55v-15.45c16.74-3.13,29.37-16.62,29.37-32.72v-92.74
			c0-14.192-15.291-23.415-27.98-16.44c-39.684,21.816-114.144,24.196-158.94,21.39c-20.822-1.309-40.249,9.011-54.03,25.44
			c-11.46,13.66-18.04,30.48-18.04,46.12v23.59c0,12.36,10.93,22.41,24.37,22.41c0.35,0,0.7-0.02,1.05-0.07l0.56-0.08v18.55
			c-14.91,4.93-25.7,19-25.7,35.55c0,17.61,12.23,32.42,28.64,36.39c2.9,11.62,7.89,22.66,14.84,32.68
			c10.37,14.93,24.4,26.66,40.77,34.15v30.42c0,1.823-1.069,3.472-3.58,4.03c-0.942,0.086-6.31-0.037-27.03,0.02h-0.01
			c-24.07,0-46.86,9.22-64.19,25.97c-2.98,2.88-3.06,7.63-0.18,10.6c2.867,2.984,7.632,3.056,10.6,0.19
			c11.62-11.228,26.177-18.407,41.87-20.833l-20.339,40.145c-0.225,0.444-0.405,0.909-0.538,1.39
			c-1.246,4.505-0.046,9.195,3.213,12.547c3.258,3.351,7.91,4.685,12.448,3.565l25.341-6.243c0.623,0.462,1.314,0.826,2.053,1.078
			l57.815,19.696v68.635H110.244c-5.99,0-10.87-4.88-10.87-10.87v-53.46c0-11.79,2.58-23.1,7.65-33.61
			c1.81-3.73,0.24-8.22-3.49-10.02s-8.21-0.24-10.01,3.49c-6.07,12.57-9.15,26.07-9.15,40.14v53.46c0,14.26,11.6,25.87,25.87,25.87
			h284.21c14.26,0,25.86-11.61,25.86-25.87C420.099,426.009,420.838,423.486,419.564,413.549z M325.644,355.493l18.591,35.393
			l-21.896-5.395c-3.753-0.926-7.727-0.107-10.804,2.139l-29.733,10.129L325.644,355.493z M352.224,214.529
			c0.41-5.892,0.172-7.907,0.24-38.37C366.875,185.063,366.649,205.896,352.224,214.529z M138.124,195.279
			c0-8.07,4.28-15.16,10.7-19.12c0.069,31.124-0.168,32.517,0.24,38.38C142.514,210.609,138.124,203.449,138.124,195.279z
			 M193.19,387.63c-3.076-2.245-7.05-3.066-10.805-2.139l-22.003,5.421l18.879-37.263l44.764,44.485L193.19,387.63z
			 M194.818,347.961c9.185,0.019,9.804,0.105,12.095-0.342c8.96-1.68,15.46-9.55,15.46-18.7v-35.37c0-3.08-1.87-5.84-4.73-6.98
			c-25.22-10.01-43.96-31.66-50.89-57.14c-3.824-14.035-2.93-18.231-2.93-90.37l96.28-13.62c4.1-0.58,6.96-4.38,6.38-8.48
			s-4.39-6.96-8.48-6.37c-33.962,4.803-51.306,7.256-59.316,8.388c8.828-1.249,17.584-2.488-51.934,7.342
			c-4.88-0.19-8.91-3.5-8.91-7.4v-23.59c0-23.66,21.56-53.5,49.35-56.51c6.228-0.682,115.106,9.03,173.89-23.3
			c2.617-1.436,5.75,0.348,5.75,3.3v92.74c0,13.458-15.66,21.116-29.37,17.62c-8.96-2.3-15.5-9.33-15.5-17.62v-9.38
			c0-8.605-10.551-13.085-17.11-7.35c-4.3,3.78-10.63,7.06-18.83,9.73c-3.94,1.29-6.09,5.53-4.8,9.46c1.29,3.94,5.51,6.09,9.46,4.8
			c6.3-2.05,11.7-4.41,16.28-7.12c0.08,16.41,13.25,30.06,30.5,32.78c0,65.208,0.943,70.749-2.89,85.01
			c-6.57,24.41-23.92,45.14-47.83,55.76c-2.71,1.2-4.45,3.89-4.45,6.85v36.82c0,10.51,8.54,19.05,19.01,19.05
			c4.052,0.018,7.513,0.024,10.509,0.023l-59.37,57.234L194.818,347.961z M192.774,119.814
			C192.721,119.822,192.723,119.821,192.774,119.814L192.774,119.814z M193.297,119.74c0.129-0.018,0.277-0.039,0.443-0.063
			C193.569,119.702,193.422,119.723,193.297,119.74z M197.257,119.18c0.11-0.016,0.221-0.031,0.332-0.047
			C197.475,119.149,197.366,119.165,197.257,119.18z M358.929,488.903h-54.593v-22.645h54.593V488.903z M358.929,451.258h-54.593
			v-10.888h54.593V451.258z"/>
		<circle cx="204.82" cy="177.146" r="10.84"/>
		<circle cx="296.243" cy="177.146" r="10.84"/>
		<path d="M277.777,215.659c-4.143,0-7.5,3.357-7.5,7.5c0,10.406-8.467,18.873-18.873,18.873c-10.406,0-18.873-8.467-18.873-18.873
			c0-4.143-3.357-7.5-7.5-7.5s-7.5,3.357-7.5,7.5c0,18.678,15.195,33.873,33.873,33.873s33.873-15.195,33.873-33.873
			C285.277,219.016,281.92,215.659,277.777,215.659z"/>
		<circle cx="234.452" cy="439.539" r="7.494"/>
		<circle cx="234.452" cy="477.254" r="7.494"/>
	</g>
</g>
<g>
</g>
<g>
</g>
<g>
</g>
<g>
</g>
<g>
</g>
<g>
</g>
<g>
</g>
<g>
</g>
<g>
</g>
<g>
</g>
<g>
</g>
<g>
</g>
<g>
</g>
<g>
</g>
<g>
</g>
</svg>
