<?xml version="1.0" encoding="iso-8859-1"?>
<!-- Generator: Adobe Illustrator 19.0.0, SVG Export Plug-In . SVG Version: 6.00 Build 0)  -->
<svg version="1.1" id="Layer_1" xmlns="http://www.w3.org/2000/svg" xmlns:xlink="http://www.w3.org/1999/xlink" x="0px" y="0px"
	 viewBox="0 0 508.688 508.688" style="enable-background:new 0 0 508.688 508.688;" xml:space="preserve">
<g>
	<path style="fill:#97D57E;" d="M499.191,285.36l-65.724-53.378l-0.002,0.017v-0.015H75.224v0.014l-0.002-0.016L9.498,285.36
		c-1.264,1.026-1.997,2.567-1.997,4.195v26.871c0,4.493,5.163,7.024,8.715,4.272l59.009-45.572v172.657
		c0,8.79,7.13,15.92,15.92,15.92h326.4c8.79,0,15.92-7.13,15.92-15.92V275.179l59.009,45.52c3.552,2.752,8.715,0.22,8.715-4.272
		v-26.871C501.188,287.928,500.454,286.387,499.191,285.36z"/>
	<path style="fill:#DCD2CD;" d="M126.404,181.264v231.1h-51.18v-231.1c0-7.63,6.19-13.82,13.82-13.82h23.53
		C120.214,167.444,126.404,173.634,126.404,181.264z"/>
	<path style="fill:#DCD2CD;" d="M177.574,87.264v231.1h-51.17v-231.1c0-7.63,6.18-13.82,13.82-13.82h23.53
		C171.394,73.444,177.574,79.634,177.574,87.264z"/>
	<path style="fill:#DCD2CD;" d="M228.754,209.724v231.1h-51.18v-231.1c0-7.63,6.19-13.82,13.82-13.82h23.54
		C222.564,195.904,228.754,202.094,228.754,209.724z"/>
	<path style="fill:#DCD2CD;" d="M279.934,58.804v231.1h-51.18v-231.1c0-7.63,6.19-13.82,13.82-13.82h23.54
		C273.744,44.984,279.934,51.174,279.934,58.804z"/>
	<path style="fill:#DCD2CD;" d="M331.114,116.994v231.1h-51.18v-231.1c0-7.64,6.19-13.82,13.82-13.82h23.54
		C324.924,103.174,331.114,109.354,331.114,116.994z"/>
	<path style="fill:#DCD2CD;" d="M382.284,181.264v231.1h-51.17v-231.1c0-7.63,6.18-13.82,13.82-13.82h23.53
		C376.104,167.444,382.284,173.634,382.284,181.264z"/>
	<path style="fill:#DCD2CD;" d="M433.464,116.994v231.1h-51.18v-231.1c0-7.64,6.19-13.82,13.83-13.82h23.53
		C427.274,103.174,433.464,109.354,433.464,116.994z"/>
	<path style="fill:#EBE1DC;" d="M126.404,181.264v231.1h-28.18v-231.1c0-7.63,6.19-13.82,13.82-13.82h0.53
		C120.214,167.444,126.404,173.634,126.404,181.264z"/>
	<path style="fill:#EBE1DC;" d="M177.574,87.264v231.1h-28.17v-231.1c0-7.63,6.18-13.82,13.82-13.82h0.53
		C171.394,73.444,177.574,79.634,177.574,87.264z"/>
	<path style="fill:#EBE1DC;" d="M228.754,209.724v231.1h-28.18v-231.1c0-7.63,6.19-13.82,13.82-13.82h0.54
		C222.564,195.904,228.754,202.094,228.754,209.724z"/>
	<path style="fill:#EBE1DC;" d="M279.934,58.804v231.1h-28.18v-231.1c0-7.63,6.19-13.82,13.82-13.82h0.54
		C273.744,44.984,279.934,51.174,279.934,58.804z"/>
	<path style="fill:#EBE1DC;" d="M331.114,116.994v231.1h-28.18v-231.1c0-7.64,6.19-13.82,13.82-13.82h0.54
		C324.924,103.174,331.114,109.354,331.114,116.994z"/>
	<path style="fill:#EBE1DC;" d="M382.284,181.264v231.1h-28.17v-231.1c0-7.63,6.18-13.82,13.82-13.82h0.53
		C376.104,167.444,382.284,173.634,382.284,181.264z"/>
	<path style="fill:#EBE1DC;" d="M433.464,116.994v231.1h-28.18v-231.1c0-7.64,6.19-13.82,13.83-13.82h0.53
		C427.274,103.174,433.464,109.354,433.464,116.994z"/>
	<path style="fill:#5CA33B;" d="M433.464,231.984v215.8c0,8.79-7.13,15.92-15.92,15.92h-326.4c-8.79,0-15.92-7.13-15.92-15.92
		v-215.8H433.464z"/>
	<path style="fill:#6DC54A;" d="M433.464,231.984v197.53h-305.23c-8.79,0-15.92-7.13-15.92-15.92v-181.61H433.464z"/>
	<path style="fill:#97D57E;" d="M7.5,289.556v26.871c0,4.493,5.163,7.024,8.715,4.272l59.007-45.717v-43L9.498,285.36
		C8.234,286.387,7.5,287.928,7.5,289.556z"/>
	<path style="fill:#97D57E;" d="M501.188,289.556v26.871c0,4.493-5.163,7.024-8.715,4.272l-59.007-45.717v-43l65.724,53.378
		C500.454,286.387,501.188,287.928,501.188,289.556z"/>
	<g>
		<path d="M503.919,279.538l-62.955-51.128v-26.666c0-4.15-3.36-7.5-7.5-7.5s-7.5,3.35-7.5,7.5v22.74h-36.18v-12.22v-30v-1v-64.27
			c0-3.49,2.84-6.32,6.33-6.32h23.53c3.49,0,6.32,2.83,6.32,6.32v54.75c0,4.14,3.36,7.5,7.5,7.5s7.5-3.36,7.5-7.5v-54.75
			c0-11.76-9.56-21.32-21.32-21.32h-23.53c-11.76,0-21.33,9.56-21.33,21.32v43.91c-1.99-0.63-4.12-0.96-6.32-0.96h-23.53
			c-2.2,0-4.33,0.33-6.32,0.96v-43.91c0-11.76-9.57-21.32-21.32-21.32h-23.54c-2.2,0-4.33,0.33-6.32,0.96v-37.83
			c0-11.76-9.57-21.32-21.32-21.32h-23.54c-11.75,0-21.32,9.56-21.32,21.32v130.56c-1.99-0.63-4.12-0.96-6.32-0.96h-23.54
			c-2.2,0-4.32,0.33-6.32,0.96v-102.1c0-11.75-9.56-21.32-21.32-21.32h-23.53c-11.76,0-21.32,9.57-21.32,21.32v22.28
			c0,4.14,3.35,7.5,7.5,7.5c4.14,0,7.5-3.36,7.5-7.5v-22.28c0-3.48,2.83-6.32,6.32-6.32h23.53c3.49,0,6.32,2.84,6.32,6.32v122.46
			v14.76h-36.17v-43.22v-41.72c0-4.14-3.36-7.5-7.5-7.5c-4.15,0-7.5,3.36-7.5,7.5v21.36c-2-0.62-4.12-0.96-6.33-0.96h-23.53
			c-11.76,0-21.32,9.56-21.32,21.32v47.146L4.769,279.539C1.738,282,0,285.651,0,289.556v26.87c0,7.121,5.8,12.915,12.929,12.915
			c2.865,0,5.59-0.938,7.88-2.714l46.916-36.348v122.085v35.42c0,12.91,10.5,23.42,23.42,23.42h326.4
			c12.92,0,23.42-10.51,23.42-23.42c0-23.363,0-134.328,0-157.505l46.914,36.347c2.292,1.776,5.017,2.715,7.882,2.715
			c7.129,0,12.929-5.794,12.929-12.915v-26.87C508.688,285.651,506.95,282,503.919,279.538z M67.722,271.306L15,312.153v-21.6
			l52.722-42.817V271.306z M338.614,181.264c0-3.49,2.83-6.32,6.32-6.32h23.53c3.49,0,6.32,2.83,6.32,6.32v1v30v12.22h-36.17
			V181.264z M287.434,116.994c0-3.49,2.83-6.32,6.32-6.32h23.54c3.48,0,6.32,2.83,6.32,6.32v64.27v43.22h-36.18V116.994z
			 M185.074,209.724c0-3.48,2.84-6.32,6.32-6.32h23.54c3.49,0,6.32,2.84,6.32,6.32v14.76h-36.18V209.724z M82.724,181.264
			c0-3.49,2.83-6.32,6.32-6.32h23.53c3.49,0,6.33,2.83,6.33,6.32v43.22h-36.18V181.264z M425.964,447.784
			c0,4.64-3.78,8.42-8.42,8.42h-326.4c-4.64,0-8.42-3.78-8.42-8.42v-27.92v-180.38c125.613,0,39.49,0,157.28,0
			c4.14,0,7.5-3.36,7.5-7.5c0-4.14-3.36-7.5-7.5-7.5h-3.75c0-6.983,0-157.323,0-165.68c0-3.49,2.84-6.32,6.32-6.32h23.54
			c3.48,0,6.32,2.83,6.32,6.32v58.19v107.49h-2.43c-4.15,0-7.5,3.36-7.5,7.5c0,4.14,3.35,7.5,7.5,7.5c92.086,0,102.964,0,155.96,0
			C425.964,246.92,425.964,441.564,425.964,447.784z M493.688,312.153l-52.722-40.847v-23.57l52.722,42.817V312.153z"/>
		<path d="M261.665,357.441l-27.258,13.063c-0.422,0.201-0.815,0.3-1.203,0.3c-1.376,0-2.677-1.292-2.677-2.658
			c0-0.349,0.082-0.72,0.243-1.103l19.958-47.517c0.937-2.234,1.412-4.559,1.412-6.909c0-9.571-8.098-17.657-17.683-17.657
			c-2.731,0-5.392,0.635-7.912,1.888l-102.111,50.791c-3.708,1.845-5.22,6.347-3.375,10.055c1.845,3.71,6.347,5.221,10.056,3.375
			l102.109-50.79c0.431-0.214,0.834-0.318,1.233-0.318c1.379,0,2.683,1.291,2.683,2.657c0,0.348-0.083,0.721-0.243,1.104
			l-19.957,47.514c-0.938,2.231-1.413,4.557-1.413,6.91c0,9.571,8.095,17.658,17.677,17.658c2.643,0,5.228-0.597,7.684-1.772
			l27.258-13.063c0.42-0.201,0.813-0.299,1.2-0.299c1.376,0,2.678,1.29,2.678,2.654c0,0.343-0.074,0.692-0.228,1.071
			c-0.871,2.155-1.313,4.399-1.313,6.672c0,9.738,7.913,17.661,17.639,17.661c1.915,0,3.827-0.315,5.685-0.938
			c21.415-7.185,54.328-15.791,86.907-14.939c4.105,0.103,7.586-3.156,7.697-7.297c0.11-4.141-3.157-7.587-7.298-7.697
			c-1.67-0.045-3.365-0.067-5.036-0.067c-33.064,0-65.583,8.581-87.039,15.779c-0.316,0.106-0.625,0.16-0.916,0.16
			c-1.381,0-2.639-1.269-2.639-2.661c0-0.337,0.074-0.69,0.219-1.049c0.877-2.168,1.321-4.42,1.321-6.694
			c0-9.569-8.096-17.654-17.678-17.654C266.704,355.669,264.12,356.265,261.665,357.441z"/>
	</g>
</g>
<g>
</g>
<g>
</g>
<g>
</g>
<g>
</g>
<g>
</g>
<g>
</g>
<g>
</g>
<g>
</g>
<g>
</g>
<g>
</g>
<g>
</g>
<g>
</g>
<g>
</g>
<g>
</g>
<g>
</g>
</svg>
