<svg class="svg-icon" style="width: 1em; height: 1em;vertical-align: middle;fill: currentColor;overflow: hidden;" viewBox="0 0 1024 1024" version="1.1" xmlns="http://www.w3.org/2000/svg"><path d="M115.3 119.6h84.5v783h-84.5z" fill="#765A4E" /><path d="M199.8 919.9h-84.5c-9.6 0-17.3-7.8-17.3-17.3v-783c0-9.6 7.8-17.3 17.3-17.3h84.5c9.6 0 17.3 7.8 17.3 17.3v783c0.1 9.6-7.7 17.3-17.3 17.3z m-67.1-34.6h49.8V137h-49.8v748.3z" fill="#4C4848" /><path d="M824.2 119.6h84.5v783h-84.5z" fill="#765A4E" /><path d="M908.7 919.9h-84.5c-9.6 0-17.3-7.8-17.3-17.3v-783c0-9.6 7.8-17.3 17.3-17.3h84.5c9.6 0 17.3 7.8 17.3 17.3v783c0 9.6-7.8 17.3-17.3 17.3z m-67.2-34.6h49.8V137h-49.8v748.3z" fill="#4C4848" /><path d="M824.2 266.3H199.8c-9.6 0-17.3-7.8-17.3-17.3 0-9.6 7.8-17.3 17.3-17.3h624.3c9.6 0 17.3 7.8 17.3 17.3 0.1 9.5-7.7 17.3-17.2 17.3zM824.2 528.4H199.8c-9.6 0-17.3-7.8-17.3-17.3s7.8-17.3 17.3-17.3h624.3c9.6 0 17.3 7.8 17.3 17.3s-7.7 17.3-17.2 17.3zM824.2 790.6H199.8c-9.6 0-17.3-7.8-17.3-17.3 0-9.6 7.8-17.3 17.3-17.3h624.3c9.6 0 17.3 7.8 17.3 17.3 0.1 9.6-7.7 17.3-17.2 17.3z" fill="#4C4848" /><path d="M443.9 247.4m-66.4 0a66.4 66.4 0 1 0 132.8 0 66.4 66.4 0 1 0-132.8 0Z" fill="#FF5A5A" /><path d="M443.9 331.2c-46.2 0-83.8-37.6-83.8-83.8s37.6-83.8 83.8-83.8 83.8 37.6 83.8 83.8-37.6 83.8-83.8 83.8z m0-132.9c-27.1 0-49.1 22-49.1 49.1s22 49.1 49.1 49.1 49.1-22 49.1-49.1-22.1-49.1-49.1-49.1z" fill="#4C4848" /><path d="M577.4 247.4m-66.4 0a66.4 66.4 0 1 0 132.8 0 66.4 66.4 0 1 0-132.8 0Z" fill="#F4CA19" /><path d="M577.4 331.2c-46.2 0-83.8-37.6-83.8-83.8s37.6-83.8 83.8-83.8 83.8 37.6 83.8 83.8-37.6 83.8-83.8 83.8z m0-132.9c-27.1 0-49.1 22-49.1 49.1s22 49.1 49.1 49.1 49.1-22 49.1-49.1-22-49.1-49.1-49.1z" fill="#4C4848" /><path d="M710.9 247.4m-66.4 0a66.4 66.4 0 1 0 132.8 0 66.4 66.4 0 1 0-132.8 0Z" fill="#80D4EE" /><path d="M710.9 331.2c-46.2 0-83.8-37.6-83.8-83.8s37.6-83.8 83.8-83.8c46.2 0 83.8 37.6 83.8 83.8s-37.6 83.8-83.8 83.8z m0-132.9c-27.1 0-49.1 22-49.1 49.1s22 49.1 49.1 49.1 49.1-22 49.1-49.1-22-49.1-49.1-49.1z" fill="#4C4848" /><path d="M339.9 773.3m-66.4 0a66.4 66.4 0 1 0 132.8 0 66.4 66.4 0 1 0-132.8 0Z" fill="#FF5A5A" /><path d="M339.9 857.1c-46.2 0-83.8-37.6-83.8-83.8s37.6-83.8 83.8-83.8 83.8 37.6 83.8 83.8-37.7 83.8-83.8 83.8z m0-132.9c-27.1 0-49.1 22-49.1 49.1s22 49.1 49.1 49.1 49.1-22 49.1-49.1-22.1-49.1-49.1-49.1z" fill="#4C4848" /><path d="M577.4 773.2m-66.4 0a66.4 66.4 0 1 0 132.8 0 66.4 66.4 0 1 0-132.8 0Z" fill="#F4CA19" /><path d="M577.4 857c-46.2 0-83.8-37.6-83.8-83.8s37.6-83.8 83.8-83.8 83.8 37.6 83.8 83.8-37.6 83.8-83.8 83.8z m0-132.9c-27.1 0-49.1 22-49.1 49.1s22 49.1 49.1 49.1 49.1-22 49.1-49.1c0.1-27.1-22-49.1-49.1-49.1z" fill="#4C4848" /><path d="M710.9 773.3m-66.4 0a66.4 66.4 0 1 0 132.8 0 66.4 66.4 0 1 0-132.8 0Z" fill="#80D4EE" /><path d="M710.9 857.1c-46.2 0-83.8-37.6-83.8-83.8s37.6-83.8 83.8-83.8c46.2 0 83.8 37.6 83.8 83.8s-37.6 83.8-83.8 83.8z m0-132.9c-27.1 0-49.1 22-49.1 49.1s22 49.1 49.1 49.1 49.1-22 49.1-49.1-22-49.1-49.1-49.1z" fill="#4C4848" /><path d="M710.9 511.1m-66.4 0a66.4 66.4 0 1 0 132.8 0 66.4 66.4 0 1 0-132.8 0Z" fill="#FF5A5A" /><path d="M710.9 594.9c-46.2 0-83.8-37.6-83.8-83.8s37.6-83.8 83.8-83.8c46.2 0 83.8 37.6 83.8 83.8s-37.6 83.8-83.8 83.8z m0-132.9c-27.1 0-49.1 22-49.1 49.1s22 49.1 49.1 49.1 49.1-22 49.1-49.1-22-49.1-49.1-49.1z" fill="#4C4848" /><path d="M461.2 511.1m-66.4 0a66.4 66.4 0 1 0 132.8 0 66.4 66.4 0 1 0-132.8 0Z" fill="#F4CA19" /><path d="M461.2 594.9c-46.2 0-83.8-37.6-83.8-83.8s37.6-83.8 83.8-83.8 83.8 37.6 83.8 83.8-37.6 83.8-83.8 83.8z m0-132.9c-27.1 0-49.1 22-49.1 49.1s22 49.1 49.1 49.1 49.1-22 49.1-49.1-22-49.1-49.1-49.1z" fill="#4C4848" /><path d="M327.6 511.1m-66.4 0a66.4 66.4 0 1 0 132.8 0 66.4 66.4 0 1 0-132.8 0Z" fill="#80D4EE" /><path d="M327.6 594.9c-46.2 0-83.8-37.6-83.8-83.8s37.6-83.8 83.8-83.8 83.8 37.6 83.8 83.8-37.6 83.8-83.8 83.8z m0-132.9c-27.1 0-49.1 22-49.1 49.1s22 49.1 49.1 49.1 49.1-22 49.1-49.1c0.1-27.1-22-49.1-49.1-49.1z" fill="#4C4848" /></svg>