<?xml version="1.0" encoding="iso-8859-1"?>
<!-- Generator: Adobe Illustrator 19.0.0, SVG Export Plug-In . SVG Version: 6.00 Build 0)  -->
<svg version="1.1" id="Layer_1" xmlns="http://www.w3.org/2000/svg" xmlns:xlink="http://www.w3.org/1999/xlink" x="0px" y="0px"
	 viewBox="0 0 501.243 501.243" style="enable-background:new 0 0 501.243 501.243;" xml:space="preserve">
<g>
	<path style="fill:#5CA33B;" d="M481.085,250.621h-66.714v171.402h66.714c6.991,0,12.658-5.667,12.658-12.658V263.279
		C493.743,256.289,488.076,250.621,481.085,250.621z"/>
	<path style="fill:#3E9DC3;" d="M214.121,250.621h-66.714v171.402h66.714c6.991,0,12.658-5.667,12.658-12.658V263.279
		C226.779,256.289,221.111,250.621,214.121,250.621z"/>
	<path style="fill:#D63030;" d="M347.603,79.22h-66.714v171.402h66.714c6.991,0,12.658-5.667,12.658-12.658V91.878
		C360.261,84.887,354.594,79.22,347.603,79.22z"/>
	<path style="fill:#F44545;" d="M300.55,250.621H152.817c-6.536,0-11.834-5.298-11.834-11.834V91.054
		c0-6.536,5.298-11.834,11.834-11.834H300.55c6.536,0,11.834,5.298,11.834,11.834v147.733
		C312.384,245.323,307.086,250.621,300.55,250.621z"/>
	<path style="fill:#7FBED7;" d="M167.067,422.023H19.334c-6.536,0-11.834-5.298-11.834-11.834V262.456
		c0-6.536,5.298-11.834,11.834-11.834h147.733c6.536,0,11.834,5.298,11.834,11.834v147.733
		C178.902,416.725,173.603,422.023,167.067,422.023z"/>
	<path style="fill:#6DC54A;" d="M445.866,262.456v147.733c0,6.536-5.298,11.834-11.834,11.834H286.299
		c-6.536,0-11.834-5.298-11.834-11.834V262.456c0-6.536,5.298-11.834,11.834-11.834h147.733
		C440.568,250.621,445.866,255.92,445.866,262.456z"/>
	<g>
		<path d="M200.831,211.264c2.894,0,5.131-0.921,5.789-3.421l5-17.497h30.127l4.999,17.497c0.658,2.5,2.895,3.421,5.789,3.421
			c4.604,0,10.788-3.026,10.788-7.104c0-0.395-0.132-0.789-0.263-1.315l-25.392-82.752c-1.184-3.947-6.052-5.789-11.051-5.789
			c-4.868,0-9.736,1.842-10.92,5.789l-25.391,82.752c-0.132,0.526-0.263,1.053-0.263,1.315
			C190.043,208.37,196.226,211.264,200.831,211.264z M226.617,136.538l11.446,40.389h-22.892L226.617,136.538z"/>
		<path d="M111.421,330.567c6.973-3.025,11.183-10.13,11.183-20.918c0-18.682-12.762-23.154-26.444-23.154H70.769
			c-3.815,0-7.499,1.842-7.499,5.394v85.515c0,2.763,2.895,5.263,7.499,5.263H98.66c30.053,0,25.912-29.581,26.312-30.653
			C124.972,338.856,119.447,333.725,111.421,330.567z M80.242,301.493h14.603c6.71,0,10.657,4.21,10.657,11.051
			c0,6.71-3.421,11.314-10.525,11.314H80.242V301.493z M95.108,367.667H80.242v-30.391h14.866c8.025,0,12.762,3.684,12.762,13.945
			C107.566,352.277,110.156,367.667,95.108,367.667z"/>
		<path d="M481.085,243.122c-16.207,0-97.941,0-114.018,0c0.438-1.65,0.694-3.373,0.694-5.158V91.877
			c0-11.114-9.042-20.157-20.158-20.157H300.55c-9.651,0-85.01,0-95.393,0c-4.142,0-7.5,3.357-7.5,7.5s3.358,7.5,7.5,7.5
			c10.301,0,85.742,0,95.393,0c2.39,0,4.334,1.944,4.334,4.334v147.733c0,2.39-1.944,4.334-4.334,4.334
			c-22.144,0-130.642,0-147.733,0c-2.39,0-4.334-1.944-4.334-4.334V91.054c0-2.39,1.944-4.334,4.334-4.334h22.341
			c4.142,0,7.5-3.357,7.5-7.5s-3.358-7.5-7.5-7.5h-22.341c-10.661,0-19.334,8.673-19.334,19.334v147.733
			c0,1.492,0.186,2.938,0.508,4.334H19.334C8.673,243.122,0,251.794,0,262.456v147.733c0,10.661,8.673,19.334,19.334,19.334
			c22.352,0,125.356,0,147.733,0h47.053c11.115,0,20.158-9.043,20.158-20.158v-2.69c0-4.143-3.358-7.5-7.5-7.5s-7.5,3.357-7.5,7.5
			v2.69c0,2.845-2.314,5.158-5.158,5.158h-28.226c0.321-1.396,0.508-2.842,0.508-4.334V262.456c0-1.492-0.186-2.938-0.508-4.334
			h28.226c2.844,0,5.158,2.313,5.158,5.157v113.396c0,4.143,3.358,7.5,7.5,7.5s7.5-3.357,7.5-7.5V263.279
			c0-1.785-0.256-3.508-0.694-5.157h33.887c-0.321,1.396-0.508,2.842-0.508,4.334v23.394c0,4.143,3.358,7.5,7.5,7.5
			s7.5-3.357,7.5-7.5v-23.394c0-2.39,1.944-4.334,4.334-4.334c18.817,0,129.607,0,147.733,0c2.39,0,4.334,1.944,4.334,4.334v147.733
			c0,2.39-1.944,4.334-4.334,4.334c-22.377,0-125.381,0-147.733,0c-2.39,0-4.334-1.944-4.334-4.334v-94.34
			c0-4.143-3.358-7.5-7.5-7.5s-7.5,3.357-7.5,7.5v94.34c0,10.661,8.673,19.334,19.334,19.334c22.352,0,125.356,0,147.733,0h47.053
			c11.115,0,20.158-9.043,20.158-20.158V263.279C501.243,252.165,492.2,243.122,481.085,243.122z M171.402,410.189
			c0,2.39-1.944,4.334-4.334,4.334c-22.377,0-125.38,0-147.733,0c-2.39,0-4.334-1.944-4.334-4.334V262.456
			c0-2.39,1.944-4.334,4.334-4.334c32.431,0,114.673,0,147.733,0c2.39,0,4.334,1.944,4.334,4.334V410.189z M352.761,237.963
			c0,2.845-2.314,5.158-5.158,5.158h-28.227c0.321-1.396,0.508-2.842,0.508-4.334V91.054c0-1.492-0.186-2.938-0.508-4.334h28.227
			c2.844,0,5.158,2.313,5.158,5.157V237.963z M486.243,409.365c0,2.845-2.314,5.158-5.158,5.158h-28.226
			c0.321-1.396,0.508-2.842,0.508-4.334V262.456c0-1.492-0.186-2.938-0.508-4.334h28.226c2.844,0,5.158,2.313,5.158,5.157V409.365z"
			/>
		<path d="M360.231,301.493c12.499,0,13.419,8.945,13.683,13.024c0.131,3.946,3.684,5.394,8.551,5.394
			c5.789,0,8.551-1.578,8.551-8.42c0-15.261-13.024-24.996-31.312-24.996c-16.577,0-30.391,8.156-30.391,30.127v36.706
			c0,21.971,13.683,30.127,30.259,30.127c18.418,0,31.443-10.13,31.443-26.049c0-6.71-2.763-8.42-8.683-8.42
			c-4.473,0-8.157,1.315-8.42,5.394c-0.395,5.526-1.447,14.077-13.419,14.077c-9.078,0-14.077-4.867-14.077-15.129v-36.706
			C346.417,306.36,351.417,301.493,360.231,301.493z"/>
	</g>
</g>
<g>
</g>
<g>
</g>
<g>
</g>
<g>
</g>
<g>
</g>
<g>
</g>
<g>
</g>
<g>
</g>
<g>
</g>
<g>
</g>
<g>
</g>
<g>
</g>
<g>
</g>
<g>
</g>
<g>
</g>
</svg>
